<svg width="3200" height="2000" viewBox="0 0 3200 2000" fill="none" xmlns="http://www.w3.org/2000/svg">
<path d="M3200 0H0V2000H3200V0Z" fill="white"/>
<path d="M639.23 843.49C344.98 826.36 109.01 515.06 265.58 334.4C387.01 194.28 548.93 398.23 699.94 295.48C932.27 137.4 1308.67 108.66 1358.49 307.93C1408.31 507.21 1243.28 818.58 1120.29 837.26C997.31 855.94 639.23 843.49 639.23 843.49Z" fill="#E7F3FE"/>
<path d="M677.37 421.58C680.48 496.31 679.71 536.79 652.46 567.92C625.22 599.06 548.93 591.27 548.93 591.27C548.93 591.27 541.41 701.29 434.76 705.96C328.12 710.63 312.81 568.96 396.36 532.63C475.89 498.05 501.19 488 528.69 402.37C553.82 324.15 632.22 339.06 650.9 371.75C669.59 404.45 677.37 421.58 677.37 421.58Z" fill="#303C60"/>
<path d="M642.34 803.01C642.34 803.01 692.68 812.87 695.27 812.35C697.86 811.83 752.87 787.44 758.58 791.07C764.29 794.7 797.5 808.71 804.77 811.83C812.04 814.94 800.62 815.98 794.91 815.98C789.2 815.98 756.51 802.49 752.87 805.08C749.24 807.68 781.41 812.86 781.41 814.94C781.41 817.02 695.26 836.74 690.07 836.74C684.88 836.74 644.92 833.11 644.92 833.11L642.34 803.01Z" fill="#E38540"/>
<path d="M600.57 528.09C627.69 533.41 643.64 562.11 648.83 587.24C654.02 612.37 600.57 528.09 600.57 528.09Z" fill="#51D0DE"/>
<path d="M555.16 508.76C555.16 508.76 503.01 543.79 474.98 560.91C446.96 578.04 485.1 762.52 494.44 831.02C503.78 899.52 665.69 837.25 665.69 837.25C665.69 837.25 654.79 779.65 668.8 687.01C678.84 620.66 642.07 579.07 621.06 550.27C568.02 477.59 555.16 508.76 555.16 508.76Z" fill="#51D0DE"/>
<path d="M503.78 561.7C563.72 634.87 583.98 648.55 569.17 697.92C557.49 736.84 553.6 750.85 551.27 764.09C548.93 777.32 662.59 755.53 662.59 755.53L661.81 798.34C661.81 798.34 572.29 841.15 528.7 849.72C485.11 858.28 457.86 848.16 457.86 848.16L503.78 561.7Z" fill="#51D0DE"/>
<path d="M1254.35 854.77H545.17C540.05 854.77 535.9 850.62 535.9 845.5C535.9 840.38 540.05 836.23 545.17 836.23H1254.35C1259.47 836.23 1263.62 840.38 1263.62 845.5C1263.62 850.62 1259.47 854.77 1254.35 854.77Z" fill="#2E5B9A"/>
<path d="M574.36 435.07L547.37 514.99C547.37 514.99 576.95 595.17 601.86 577.26C610.36 571.15 598.75 522.77 598.75 522.77L616.91 457.9L574.36 435.07Z" fill="#F09959"/>
<path d="M488.21 558.58C450.95 562.72 447.73 613.07 430.61 697.14C413.48 781.21 418.63 836.7 426.72 847.38C446.18 873.07 664.92 783.55 692.16 784.33C710.96 784.87 695.27 753.19 695.27 753.19L486.65 785.11C486.65 785.11 516.23 687.81 516.23 637.99C516.24 588.16 502.23 557.02 488.21 558.58Z" fill="#F09959"/>
<path d="M682.04 754.75C703.84 749.3 735.75 736.85 741.98 742.29C748.21 747.74 773.9 786.66 782.46 797.56C791.02 808.46 778.57 799.9 769.23 791.33C759.89 782.77 752.1 778.1 752.1 778.1C752.1 778.1 740.42 789 729.53 795.23C718.63 801.46 714.74 789 696.06 785.89C677.38 782.78 630.67 799.12 630.67 799.12L682.04 754.75Z" fill="#F09959"/>
<path d="M492.37 552.35C469.54 553.39 451.89 572.59 445.66 602.17C439.43 631.75 421.27 725.68 421.27 725.68C421.27 725.68 417.64 728.27 455.52 735.02C493.4 741.77 524.54 733.98 524.54 733.98C524.54 733.98 532.32 680.53 530.25 643.68C528.17 606.83 519.87 572.06 506.38 560.13C492.88 548.2 492.37 552.35 492.37 552.35Z" fill="#51D0DE"/>
<path d="M598.75 522.77L616.91 457.9L574.36 435.07L567.86 454.32C566.45 518.77 582.95 540.32 594.08 548.2C597.55 550.66 600.54 548.76 603.05 544.74C601.22 533.06 598.75 522.77 598.75 522.77Z" fill="#E38540"/>
<path d="M685.16 442.6C685.16 477.32 681.02 519.89 650.91 518.89C604.2 517.33 574.77 481.03 574.77 446.31C574.77 411.59 599.19 383.45 629.31 383.45C659.44 383.44 685.16 407.88 685.16 442.6Z" fill="#F09959"/>
<path d="M1033.71 836.21H858.62L930.64 677.77C932.74 673.15 937.35 670.18 942.43 670.18H1101.33C1105.01 670.18 1107.46 673.98 1105.93 677.33L1033.71 836.21Z" fill="#9BD6E8"/>
<path d="M1033.33 836.21H710.33C710.33 824.96 719.45 815.83 730.71 815.83H1033.34V836.21H1033.33Z" fill="#9BD6E8"/>
<path d="M1101.33 670.17H961.3C956.22 670.17 951.61 673.14 949.51 677.76L877.49 836.2H1033.71L1105.93 677.32C1107.45 673.97 1105.01 670.17 1101.33 670.17Z" fill="#7BCEE8"/>
<path d="M633.78 371.37C666.86 369.03 686.45 399.26 692.16 425.73C696.28 444.83 694.24 448.56 694.24 448.56C694.24 448.56 690.61 453.75 664.66 455.31C638.71 456.87 635.6 456.35 635.6 456.35L634.04 426.25L626.26 455.31C626.26 455.31 622.11 461.02 606.02 453.23C589.93 445.45 582.67 419.5 582.67 419.5C582.67 419.5 579.04 402.37 591.49 390.96C603.94 379.54 633.78 371.37 633.78 371.37Z" fill="#303C60"/>
<path d="M609.17 449.46C606 470.46 589.23 485.34 571.73 482.7C554.23 480.05 542.61 460.89 545.78 439.89C548.95 418.89 565.72 404.01 583.22 406.66C600.72 409.29 612.34 428.46 609.17 449.46Z" fill="#D54A41"/>
<path d="M596.52 448.9C593.58 468.34 579.82 482.39 565.78 480.27C551.74 478.15 542.74 460.67 545.68 441.22C548.62 421.77 562.38 407.73 576.42 409.85C590.46 411.97 599.46 429.45 596.52 448.9Z" fill="#F39892"/>
<path d="M575.07 444.56C573.46 455.24 567.64 463.22 562.07 462.38C556.5 461.54 553.3 452.2 554.92 441.51C556.53 430.83 562.35 422.85 567.92 423.69C573.48 424.53 576.68 433.87 575.07 444.56Z" fill="#F2E5DE"/>
<path d="M574.23 407.18C589.41 350.74 641.81 358.97 655.06 366.83C666.22 373.45 667.77 382.79 667.77 382.79C667.77 382.79 653.37 371.11 628.85 375.4C605.58 379.46 591.74 393.17 589.8 408.35C588.81 416.08 574.23 407.18 574.23 407.18Z" fill="#D54A41"/>
<path d="M341.35 589.36C341.31 589.36 341.27 589.36 341.23 589.35C340.57 589.29 340.09 588.7 340.15 588.04C341.51 573.77 348.65 559.1 360.23 546.73C373.33 532.75 391.98 521.73 414.16 514.87C463.57 499.59 506.68 480.16 533.77 396.81C533.98 396.18 534.65 395.84 535.28 396.04C535.91 396.25 536.26 396.92 536.05 397.55C523.6 435.86 506.66 463.75 484.25 482.81C464.48 499.63 442.22 508.71 414.87 517.16C393.09 523.9 374.8 534.69 361.99 548.37C350.76 560.35 343.86 574.52 342.54 588.27C342.49 588.9 341.96 589.36 341.35 589.36Z" fill="#303C60"/>
<path d="M363.67 531.76C363.31 531.76 362.96 531.6 362.72 531.29C362.31 530.77 362.41 530.01 362.93 529.61C363.14 529.45 384.25 513.28 414.78 506.55C473.39 493.64 512.74 458.39 528.57 404.63C528.76 403.99 529.42 403.63 530.06 403.82C530.7 404.01 531.06 404.67 530.87 405.31C521.09 438.52 502.69 464.73 476.17 483.21C459.1 495.11 438.61 503.75 415.28 508.89C385.3 515.5 364.59 531.34 364.38 531.5C364.18 531.68 363.92 531.76 363.67 531.76Z" fill="#303C60"/>
<path d="M1115.13 514.53H957.04C955.56 514.53 954.79 513.33 955.33 511.85L987.4 423.75C987.94 422.27 989.58 421.07 991.06 421.07H1149.15C1150.63 421.07 1151.4 422.27 1150.86 423.75L1118.79 511.85C1118.25 513.33 1116.61 514.53 1115.13 514.53Z" fill="#51D0DE"/>
<path d="M1113.22 510.41H961.94C960.56 510.41 959.84 509.29 960.35 507.91L989.55 427.69C990.05 426.31 991.58 425.18 992.97 425.18H1144.24C1145.62 425.18 1146.34 426.3 1145.83 427.69L1116.63 507.91C1116.13 509.29 1114.6 510.41 1113.22 510.41Z" fill="white"/>
<path d="M1110.49 505.19H968.48C966.92 505.19 966.12 503.93 966.69 502.37L991.86 433.22C992.43 431.66 994.15 430.4 995.7 430.4H1137.71C1139.27 430.4 1140.07 431.66 1139.5 433.22L1114.33 502.37C1113.77 503.92 1112.04 505.19 1110.49 505.19Z" fill="#51D0DE"/>
<path d="M1066.97 484.411C1080.15 473.406 1084.63 457.043 1076.97 447.862C1069.31 438.681 1052.41 440.16 1039.22 451.165C1026.04 462.17 1021.56 478.533 1029.22 487.714C1036.88 496.894 1053.78 495.415 1066.97 484.411Z" fill="white"/>
<path d="M1075.44 467.79C1070.95 480.13 1057.3 490.13 1044.96 490.13C1032.62 490.13 1026.26 480.13 1030.75 467.79C1035.24 455.45 1048.89 445.45 1061.23 445.45C1073.56 445.45 1079.93 455.45 1075.44 467.79Z" fill="#51D0DE"/>
<path d="M1064.54 466.6L1054.66 471.31L1044.77 476.03L1048.21 466.6L1051.64 457.17L1058.09 461.88L1064.54 466.6Z" fill="white"/>
<path d="M875.82 415.42H863.36C860.8 415.42 858.59 414.36 857.29 412.5C855.91 410.53 855.68 407.87 856.65 405.2L861.18 392.74C862.93 387.93 868.12 384.16 872.99 384.16H885.44C888 384.16 890.21 385.23 891.51 387.08C892.89 389.05 893.12 391.71 892.15 394.38L887.62 406.83C885.88 411.64 880.69 415.42 875.82 415.42ZM873 388.95C870.16 388.95 866.75 391.49 865.7 394.38L861.17 406.84C860.74 408.02 860.76 409.08 861.23 409.75C861.74 410.47 862.67 410.63 863.37 410.63H875.83C878.72 410.63 882.06 408.14 883.13 405.2L887.66 392.74C888.09 391.56 888.07 390.5 887.6 389.83C887.09 389.11 886.16 388.95 885.46 388.95H873Z" fill="#9CD499"/>
<path d="M856.55 468.35H844.1C841.54 468.35 839.33 467.28 838.03 465.43C836.65 463.46 836.42 460.8 837.39 458.13L841.92 445.68C843.67 440.87 848.86 437.1 853.73 437.1H866.18C868.74 437.1 870.95 438.17 872.25 440.02C873.63 441.99 873.86 444.65 872.89 447.32L868.36 459.77C866.61 464.58 861.42 468.35 856.55 468.35ZM853.73 441.88C850.89 441.88 847.48 444.42 846.43 447.31L841.9 459.77C841.47 460.95 841.49 462.01 841.96 462.68C842.47 463.4 843.4 463.56 844.1 463.56H856.55C859.44 463.56 862.78 461.08 863.85 458.13L868.38 445.68C868.81 444.5 868.79 443.44 868.32 442.77C867.81 442.05 866.88 441.89 866.18 441.89H853.73V441.88Z" fill="#9CD499"/>
<path d="M837.29 521.28H824.83C822.27 521.28 820.06 520.21 818.76 518.36C817.38 516.39 817.15 513.73 818.12 511.06L822.65 498.61C824.4 493.8 829.59 490.02 834.46 490.02H846.92C849.48 490.02 851.69 491.09 852.99 492.94C854.37 494.91 854.6 497.57 853.63 500.24L849.1 512.69C847.35 517.51 842.16 521.28 837.29 521.28ZM834.47 494.82C831.58 494.82 828.24 497.3 827.17 500.25L822.64 512.7C822.21 513.88 822.23 514.94 822.7 515.61C823.21 516.33 824.14 516.49 824.84 516.49H837.29C840.18 516.49 843.52 514.01 844.59 511.06L849.12 498.61C849.55 497.43 849.53 496.37 849.06 495.7C848.55 494.98 847.62 494.82 846.92 494.82H834.47V494.82Z" fill="#51D0DE"/>
<path d="M978.29 405.23H909.79C908.51 405.23 907.84 404.18 908.3 402.89C908.77 401.61 910.2 400.55 911.49 400.55H979.99C981.27 400.55 981.94 401.6 981.48 402.89C981.01 404.18 979.58 405.23 978.29 405.23Z" fill="#51D0DE"/>
<path d="M974.89 414.57H906.39C905.11 414.57 904.44 413.52 904.91 412.24C905.38 410.96 906.81 409.9 908.1 409.9H976.6C977.88 409.9 978.55 410.95 978.09 412.24C977.61 413.52 976.18 414.57 974.89 414.57Z" fill="#51D0DE"/>
<path d="M960.44 454.27H891.94C890.66 454.27 889.99 453.22 890.46 451.93C890.93 450.65 892.36 449.59 893.64 449.59H962.14C963.42 449.59 964.09 450.64 963.63 451.93C963.16 453.22 961.73 454.27 960.44 454.27Z" fill="#51D0DE"/>
<path d="M957.04 463.61H888.54C887.26 463.61 886.59 462.56 887.06 461.28C887.53 460 888.96 458.94 890.24 458.94H958.74C960.02 458.94 960.69 459.99 960.22 461.28C959.76 462.56 958.33 463.61 957.04 463.61Z" fill="#51D0DE"/>
<path d="M940.61 508.76H872.11C870.83 508.76 870.16 507.71 870.62 506.42C871.09 505.14 872.52 504.09 873.8 504.09H942.3C943.58 504.09 944.25 505.14 943.79 506.42C943.33 507.71 941.89 508.76 940.61 508.76Z" fill="#51D0DE"/>
<path d="M937.21 518.1H868.71C867.43 518.1 866.76 517.05 867.22 515.76C867.69 514.48 869.12 513.42 870.41 513.42H938.91C940.19 513.42 940.86 514.47 940.4 515.76C939.93 517.05 938.49 518.1 937.21 518.1Z" fill="#51D0DE"/>
<path d="M872.92 408.41C872.71 408.41 872.5 408.38 872.29 408.33C871.57 408.13 870.97 407.61 870.69 406.91L865.99 395.23C865.49 394 866.09 392.6 867.32 392.11C868.55 391.62 869.95 392.21 870.44 393.44L873.96 402.18L901.75 380.76C902.8 379.95 904.31 380.15 905.12 381.2C905.93 382.25 905.73 383.76 904.68 384.57L874.38 407.92C873.96 408.24 873.44 408.41 872.92 408.41Z" fill="#F37168"/>
<path d="M853.65 461.34C853.44 461.34 853.23 461.31 853.02 461.26C852.3 461.06 851.7 460.54 851.42 459.84L846.72 448.16C846.22 446.93 846.82 445.53 848.05 445.04C849.28 444.55 850.68 445.14 851.17 446.37L854.69 455.11L882.48 433.69C883.53 432.88 885.04 433.08 885.85 434.13C886.66 435.18 886.46 436.69 885.41 437.5L855.11 460.85C854.7 461.17 854.18 461.34 853.65 461.34Z" fill="#F37168"/>
<path d="M1306.6 343.74H1043.49L1050.29 325.05H1313.4L1306.6 343.74Z" fill="#51D0DE"/>
<path d="M1296.4 371.76H1033.29L1040.09 353.08H1303.2L1296.4 371.76Z" fill="#51D0DE"/>
<path d="M1004.76 595.78H811.55C809.03 595.78 807.71 593.72 808.63 591.19C809.55 588.67 812.37 586.6 814.89 586.6H1008.1C1010.62 586.6 1011.94 588.67 1011.02 591.19C1010.1 593.72 1007.29 595.78 1004.76 595.78Z" fill="#51D0DE"/>
<path d="M997.34 616.19H804.13C801.61 616.19 800.29 614.12 801.21 611.6C802.13 609.08 804.95 607.01 807.47 607.01H1000.68C1003.2 607.01 1004.52 609.08 1003.6 611.6C1002.68 614.12 999.86 616.19 997.34 616.19Z" fill="#51D0DE"/>
<path d="M1178.21 788.68C1178.21 785.44 1217.26 677.52 1190.86 608.05C1172.38 559.41 1169.46 501.04 1169.46 501.04C1169.46 501.04 1133.46 552.6 1157.79 631.4C1172.76 679.9 1178.87 693.34 1180.17 707.61C1181.47 721.88 1174.33 793.22 1174.33 793.22L1178.21 788.68Z" fill="#9CD499"/>
<path d="M1174.32 794.42C1174.16 794.42 1174 794.39 1173.85 794.32C1173.37 794.11 1173.08 793.62 1173.13 793.1C1173.2 792.39 1180.24 721.71 1178.97 707.72C1178.12 698.41 1175.25 689.61 1168.95 670.33C1165.72 660.45 1161.71 648.16 1156.64 631.76C1143.99 590.78 1147.87 557.27 1153.34 536.37C1159.28 513.68 1168.1 500.89 1168.47 500.36C1168.76 499.94 1169.29 499.75 1169.78 499.89C1170.27 500.03 1170.62 500.47 1170.65 500.98C1170.68 501.56 1173.77 559.73 1191.98 607.63C1201.85 633.61 1203.83 667.87 1197.87 709.45C1193.11 742.65 1184.62 771.03 1181 783.15C1180.17 785.91 1179.46 788.3 1179.41 788.74C1179.41 789.03 1179.31 789.25 1179.12 789.47L1175.23 794.01C1174.99 794.27 1174.66 794.42 1174.32 794.42ZM1168.5 504.86C1165.54 509.96 1159.8 521.12 1155.62 537.09C1150.24 557.67 1146.45 590.67 1158.92 631.05C1163.98 647.44 1167.99 659.72 1171.21 669.58C1177.57 689.04 1180.47 697.92 1181.34 707.5C1182.47 719.98 1177.34 774.46 1175.87 789.55L1177.06 788.17C1177.2 787.46 1177.62 786.03 1178.69 782.47C1201.24 707.09 1204.95 648.55 1189.73 608.49C1174.07 567.27 1169.52 518.57 1168.5 504.86Z" fill="#74B570"/>
<path d="M1186.64 799.71C1180.8 679.73 1209.34 614.22 1267.71 562.33C1326.08 510.44 1328.67 496.82 1328.67 496.82C1328.67 496.82 1319.59 598 1285.86 633.02C1252.13 668.04 1202.84 693.99 1195.71 712.15C1188.58 730.31 1191.17 791.28 1191.17 791.28L1186.63 802.31V799.71H1186.64Z" fill="#9CD499"/>
<path d="M1179.5 810.08C1178.85 808.13 1191.82 697.88 1239.17 691.39C1286.52 684.9 1297.54 695.93 1329.97 690.74C1353.11 687.04 1370.83 679.71 1370.83 679.71C1370.83 679.71 1358.55 710.97 1316.35 723.81C1286.52 732.89 1247.6 717.97 1224.9 721.86C1202.2 725.75 1190.53 774.39 1190.53 774.39L1186.64 799.68L1179.5 810.08Z" fill="#9CD499"/>
<path d="M1185.99 793.77C1185.38 793.77 1184.85 793.3 1184.8 792.68C1184.73 791.9 1178.01 714.45 1210.89 655.14C1227.87 624.51 1246.42 606.75 1264.35 589.58C1281.06 573.59 1296.84 558.48 1308.8 534.55C1309.1 533.96 1309.82 533.72 1310.41 534.01C1311 534.31 1311.24 535.03 1310.95 535.62C1298.8 559.92 1282.87 575.17 1266.01 591.31C1248.21 608.36 1229.8 625.98 1212.99 656.3C1180.48 714.95 1187.12 791.69 1187.19 792.46C1187.25 793.12 1186.77 793.7 1186.11 793.77C1186.06 793.77 1186.03 793.77 1185.99 793.77Z" fill="#74B570"/>
<path d="M1182.75 778.21C1182.64 778.21 1182.53 778.19 1182.42 778.16C1181.78 777.98 1181.42 777.31 1181.6 776.67C1194.02 733.88 1208.26 708.91 1226.44 698.1C1242.69 688.43 1259.48 691.4 1277.26 694.54C1281.61 695.31 1286.11 696.1 1290.57 696.69C1329.21 701.76 1348.05 692.37 1348.24 692.27C1348.83 691.97 1349.55 692.2 1349.86 692.79C1350.16 693.38 1349.93 694.1 1349.35 694.41C1348.57 694.81 1329.75 704.25 1290.27 699.07C1285.76 698.48 1281.24 697.68 1276.86 696.91C1259.53 693.85 1243.17 690.96 1227.68 700.17C1210.06 710.65 1196.15 735.18 1183.92 777.35C1183.75 777.87 1183.27 778.21 1182.75 778.21Z" fill="#74B570"/>
<path d="M1244.69 611.85C1244.33 611.85 1243.98 611.69 1243.74 611.38C1243.34 610.86 1243.43 610.1 1243.96 609.7C1244.19 609.52 1267.26 591.94 1299.27 585.8C1299.92 585.68 1300.55 586.1 1300.67 586.75C1300.8 587.4 1300.37 588.03 1299.72 588.15C1268.26 594.19 1245.65 611.42 1245.42 611.59C1245.2 611.77 1244.94 611.85 1244.69 611.85Z" fill="#74B570"/>
<path d="M1208.04 664.06C1207.83 664.06 1207.62 664.01 1207.43 663.89C1206.86 663.55 1206.67 662.82 1207.01 662.25C1223.9 633.77 1243.68 626.59 1286.81 613.07C1287.44 612.87 1288.12 613.22 1288.31 613.86C1288.51 614.49 1288.16 615.17 1287.52 615.36C1245 628.69 1225.51 635.75 1209.07 663.47C1208.85 663.85 1208.45 664.06 1208.04 664.06Z" fill="#74B570"/>
<path d="M1197.55 839.59H1168.59C1158.36 839.59 1149.58 832.33 1147.66 822.28L1138.32 773.44H1227.82L1218.48 822.28C1216.56 832.33 1207.78 839.59 1197.55 839.59Z" fill="#F39892"/>
<path d="M1225.55 785.89H1141.24C1139.91 785.89 1138.84 784.82 1138.84 783.49C1138.84 782.16 1139.91 781.09 1141.24 781.09H1225.55C1226.88 781.09 1227.95 782.16 1227.95 783.49C1227.95 784.82 1226.88 785.89 1225.55 785.89Z" fill="#D54A41"/>
<path d="M1672.18 854.68C1672.18 854.68 1555.4 709.88 1625.47 572.08C1695.54 434.28 1828.66 466.98 2015.5 326.85C2242.33 156.73 2401.6 147.38 2604.05 221.75C2718.49 263.79 2737.18 436.62 2919.34 544.05C3083.56 640.9 2949.7 805.63 2863.29 831.32C2776.88 857.01 2718.49 857.01 2718.49 857.01L1672.18 854.68Z" fill="#E7F3FE"/>
<path d="M2367.43 543.37C2338.28 602.54 2301.74 764.21 2291.77 773.07C2281.8 781.93 2224.22 816.26 2214.25 832.87C2204.28 849.48 2208.71 843.94 2213.14 845.05C2217.57 846.16 2467.83 847.26 2467.83 847.26C2467.83 847.26 2439.04 675.62 2435.72 674.51C2432.41 673.41 2367.43 543.37 2367.43 543.37Z" fill="#51D0DE"/>
<path d="M2325.98 846.46C2371.94 846.78 2420.45 847.03 2447.15 847.16L2410.59 628.53C2391.09 590.73 2367.42 543.36 2367.42 543.36C2363.75 550.82 2359.95 559.91 2356.11 570.11C2352.32 734.32 2375.97 780.34 2358.2 809.6C2344.35 832.45 2331.7 842.66 2325.98 846.46Z" fill="#51D0DE"/>
<path d="M2845.62 858.22H1643.87C1638.75 858.22 1634.6 854.07 1634.6 848.95C1634.6 843.83 1638.75 839.68 1643.87 839.68H2845.62C2850.74 839.68 2854.89 843.83 2854.89 848.95C2854.89 854.07 2850.74 858.22 2845.62 858.22Z" fill="#2E5B9A"/>
<path d="M2520.91 471.96C2562.48 510.33 2655 546.72 2655 546.72C2655 546.72 2669.06 676.6 2659.47 750.15C2649.88 823.69 2655.21 838.61 2655.21 838.61H2464.43C2464.43 838.61 2438.83 803.08 2391.95 692.59C2362.11 622.25 2367.44 543.37 2367.44 543.37L2483.62 491.14L2520.91 471.96Z" fill="#51D0DE"/>
<path d="M2464.42 838.6H2655.2C2655.2 838.6 2649.87 823.68 2659.46 750.14C2667.36 689.58 2659.22 590.83 2656.1 557.84L2638.75 550.4C2595.19 562.95 2570.09 627.92 2562.71 691.41C2557.77 733.89 2487.39 775.71 2441.35 798.74C2456.48 827.58 2464.42 838.6 2464.42 838.6Z" fill="#51D0DE"/>
<path d="M2417.64 338.65C2394.64 389.87 2422.25 437.32 2421.41 435.32C2420.57 433.32 2456.22 348.84 2456.22 348.84L2417.64 338.65Z" fill="#2E5B9A"/>
<path d="M2504.79 376.52L2533.96 483.13C2534.78 486.14 2534.08 489.34 2532.12 491.77C2525.28 500.2 2515.54 517.53 2495.89 523.09C2492.07 524.17 2487.36 524.46 2483.55 524.47C2479.54 524.48 2476.09 521.66 2475.33 517.73L2455.79 416.62L2504.79 376.52Z" fill="#F09959"/>
<path d="M2499.22 385.43L2488.56 389.8L2455.78 416.62L2473.37 506.27C2503.22 487.66 2507.57 475.11 2499.22 385.43Z" fill="#E38540"/>
<path d="M2503.72 423.68C2497.26 458.75 2471.02 482.47 2445.11 476.66C2419.19 470.85 2406.83 448.15 2409.87 402.64C2412.26 366.93 2429.86 328.12 2455.78 333.94C2481.7 339.74 2510.18 388.61 2503.72 423.68Z" fill="#F09959"/>
<path d="M2655 546.71C2693.6 555.43 2700.77 633.83 2713.32 716.52C2714.76 726.04 2722.18 806.59 2722.18 806.59C2722.18 806.59 2722.92 821.36 2708.15 828.74C2695.53 835.05 2690.43 839.81 2617.34 840.55C2547.14 841.26 2456.64 838.34 2456.64 838.34C2456.64 838.34 2455.84 812.22 2463.04 799.46C2473.87 780.26 2584.86 752.7 2595.19 751.23C2596.67 730.56 2585 655.76 2601.1 605.05C2612.17 570.17 2624.08 551.89 2638.99 547.12C2643.97 545.52 2649.28 545.42 2655 546.71Z" fill="#51D0DE"/>
<path d="M2496.34 839.93C2530.95 840.45 2578.44 840.95 2617.35 840.55C2690.44 839.81 2695.54 835.05 2708.16 828.74C2722.93 821.36 2723.66 808.81 2723.66 808.81C2723.66 808.81 2716.2 723.1 2714.8 713.57C2706.68 658.2 2697.9 594.84 2677.48 564.25C2696.68 620.52 2699.77 667.99 2700.11 688.27C2700.28 698.54 2699.34 712.6 2696.34 722.43C2693.02 733.32 2684.53 740.15 2671.24 736.46C2644.66 729.08 2611.44 744.58 2611.44 744.58C2611.44 744.58 2636.54 735.72 2660.17 743.84C2683.8 751.96 2732.52 805.86 2679.37 825.79C2663.09 831.89 2565.66 836.86 2496.34 839.93Z" fill="#51D0DE"/>
<path d="M2468.95 801.92C2468.95 801.92 2478.79 785.19 2498.97 785.19C2519.15 785.19 2517.67 818.17 2514.72 828.99C2511.77 839.82 2499.95 840.31 2499.95 840.31L2456.64 838.34L2468.95 801.92Z" fill="#51D0DE"/>
<path d="M2425.04 847.82H2152C2147.88 847.82 2144.51 844.45 2144.51 840.33V838.18C2144.51 834.06 2147.88 830.69 2152 830.69H2425.04C2429.16 830.69 2432.53 834.06 2432.53 838.18V840.33C2432.53 844.45 2429.16 847.82 2425.04 847.82Z" fill="#51D0DE"/>
<path d="M2463.54 803.88C2421.21 788.62 2410.11 794.37 2400.54 791.58C2376.91 784.69 2371.01 790.6 2355.75 832.43C2352.71 840.77 2361.66 841.29 2370.52 841.29C2379.38 841.29 2390.21 824.06 2393.65 822.09C2397.1 820.12 2406.45 819.14 2406.45 819.14C2406.45 819.14 2403.5 819.14 2399.07 828C2394.64 836.86 2389.23 840.3 2396.12 840.3C2403.01 840.3 2404 828.98 2416.79 831.44C2429.59 833.9 2424.67 840.3 2456.66 839.81C2488.65 839.32 2512.8 839.81 2512.28 820.61C2511.79 802.4 2513.8 793.29 2496.53 790.09C2483.22 787.64 2463.54 803.88 2463.54 803.88Z" fill="#F09959"/>
<path d="M2464.09 803.88C2492.39 800.68 2484.09 835.93 2481.13 838.89C2478.17 841.85 2496.89 839.93 2496.89 839.93C2496.89 839.93 2505.68 825.79 2498.3 809.55C2490.92 793.31 2476.15 792.57 2476.15 792.57L2463.6 799.46L2464.09 803.88Z" fill="#A86B48"/>
<path d="M2493.64 800.82C2493.27 805.19 2485.85 808.13 2477.06 807.4C2468.27 806.67 2461.43 802.53 2461.8 798.16C2462.16 793.79 2469.59 790.84 2478.38 791.58C2487.17 792.31 2494 796.45 2493.64 800.82Z" fill="#2E5B9A"/>
<path d="M2491.39 798.64C2491.06 802.54 2484.43 805.18 2476.57 804.52C2468.71 803.86 2462.61 800.17 2462.94 796.26C2463.27 792.36 2469.9 789.72 2477.76 790.38C2485.61 791.04 2491.71 794.74 2491.39 798.64Z" fill="#51D0DE"/>
<path d="M2486.48 796.83C2486.25 799.64 2481.47 801.53 2475.81 801.06C2470.15 800.59 2465.76 797.93 2465.99 795.12C2466.22 792.31 2471 790.42 2476.66 790.89C2482.32 791.36 2486.71 794.02 2486.48 796.83Z" fill="#F0CEB4"/>
<path d="M2142.01 793.74H1866.95C1852.48 793.74 1840.08 783.26 1837.46 768.83L1801.59 570.81C1798.21 552.14 1812.35 534.92 1831.08 534.92H2106.14C2120.61 534.92 2133.02 545.4 2135.63 559.83L2171.5 757.85C2174.88 776.52 2160.74 793.74 2142.01 793.74Z" fill="#51D0DE"/>
<path d="M2154.86 758.59L2118.25 564.67C2115.58 550.54 2102.92 540.28 2088.15 540.28H1808.63C1802.76 547.09 1799.83 556.42 1801.61 566.14L1838.74 768.31C1841.45 783.04 1854.29 793.74 1869.26 793.74H2124.76C2143.88 793.74 2158.31 776.88 2154.86 758.59Z" fill="#A8CEFF"/>
<path d="M2088.54 820.25H2036.32C2027.01 820.25 2019.46 811.96 2019.46 801.73V706.26C2019.46 689.98 2007.44 676.78 1992.62 676.78H1965.34C1950.52 676.78 1938.5 689.98 1938.5 706.26V813.17C1938.5 831.45 1952.05 846.24 1968.69 846.13L2111.2 845.15C2111.2 831.4 2101.05 820.25 2088.54 820.25Z" fill="#51D0DE"/>
<path d="M1940.58 708.4V813.68C1940.58 830.82 1953.86 844.83 1970.67 846.04L2109.75 845.17C2109.74 842.89 2098.77 838.74 2085.23 838.74H2028.75C2018.68 838.74 2010.51 830.57 2010.51 820.5V708.4C2010.51 692.37 1997.51 679.37 1981.48 679.37H1969.62C1953.58 679.37 1940.58 692.37 1940.58 708.4Z" fill="#A8CEFF"/>
<path d="M2231.69 808.12C2252.71 796.44 2278.4 800.34 2287.74 812.01C2297.08 823.69 2298.64 831.47 2277.62 831.47C2256.6 831.47 2214.57 833.03 2207.56 832.25C2200.56 831.47 2231.69 808.12 2231.69 808.12Z" fill="#F09959"/>
<path d="M2262.83 801.12C2285.4 795.67 2300.83 808.81 2319.66 821.36C2336.01 832.26 2339.29 842.85 2321.22 833.82C2294.75 820.59 2279.18 819.03 2279.18 819.03L2262.83 801.12Z" fill="#F09959"/>
<path d="M2242.27 808.05C2230.87 808.05 2220.92 804.41 2212.87 805.08C2204.82 805.75 2179.34 831.9 2183.36 833.92C2183.65 834.06 2183.96 834.2 2184.3 834.32C2190.35 836.55 2197.18 834.08 2200.59 828.61C2204.2 822.82 2210.06 816.09 2216.89 818.5C2228.29 822.52 2240.25 822.14 2240.25 822.14L2242.27 808.05Z" fill="#F09959"/>
<path d="M2235.58 836.15C2223.9 831.48 2242.59 792.56 2248.81 792.56C2255.03 792.56 2278.39 811.24 2278.39 811.24C2278.39 811.24 2272.9 814.34 2254.26 808.13C2249.59 806.57 2245.7 833.04 2240.25 836.15C2234.81 839.26 2235.58 836.15 2235.58 836.15Z" fill="#F7A96F"/>
<path d="M2409.85 423.13C2408.77 465.99 2423.37 473.24 2433.58 479.06C2443.8 484.88 2487.8 475.27 2494.25 464.67C2510.77 437.55 2496.87 412.26 2500.56 412.65C2504.26 413.03 2507.64 423.59 2517.27 437.29C2518.17 438.57 2524.43 447.03 2524.76 444.22C2529.23 405.84 2549.22 393.92 2544.46 355.1C2540.95 326.48 2522.79 328.75 2522.79 328.75C2522.79 328.75 2511.07 304.8 2474.59 307.52C2450.15 309.34 2428.36 318.86 2403.17 325.35C2377.98 331.83 2432.98 388.94 2465.66 368.08C2498.34 347.22 2482.2 393.17 2487.36 396.74C2492.52 400.3 2489.84 397.21 2492.2 420.73C2494.56 444.25 2464.7 459.6 2456.14 461.61C2428.77 468.05 2424.2 463.53 2418.2 453.23C2413.01 444.28 2409.85 423.13 2409.85 423.13Z" fill="#2E5B9A"/>
<path d="M2523.14 409.86C2520 420.66 2512.33 427.64 2506 425.45C2499.67 423.26 2499.49 414.48 2500.23 401.92C2500.9 390.6 2511.04 384.14 2517.37 386.33C2523.69 388.52 2526.28 399.06 2523.14 409.86Z" fill="#F09959"/>
<path d="M1925.08 380.86H1691.43C1688.89 380.86 1686.83 378.8 1686.83 376.26V275.71C1686.83 273.17 1688.89 271.11 1691.43 271.11H1925.08C1927.62 271.11 1929.68 273.17 1929.68 275.71V376.25C1929.69 378.8 1927.63 380.86 1925.08 380.86Z" fill="#B7E1FF"/>
<path d="M1919.33 375.71H1697.19C1695.14 375.71 1693.47 374.04 1693.47 371.99V303.66C1693.47 301.61 1695.13 299.94 1697.19 299.94H1919.33C1921.38 299.94 1923.05 301.61 1923.05 303.66V371.99C1923.05 374.04 1921.38 375.71 1919.33 375.71Z" fill="white"/>
<path d="M1704.3 287.75H1698.91C1697.77 287.75 1696.85 286.83 1696.85 285.69V281.25C1696.85 280.11 1697.77 279.19 1698.91 279.19H1704.3C1705.44 279.19 1706.36 280.11 1706.36 281.25V285.69C1706.36 286.82 1705.43 287.75 1704.3 287.75Z" fill="white"/>
<path d="M1721.59 287.75H1716.2C1715.06 287.75 1714.14 286.83 1714.14 285.69V281.25C1714.14 280.11 1715.06 279.19 1716.2 279.19H1721.59C1722.73 279.19 1723.65 280.11 1723.65 281.25V285.69C1723.66 286.82 1722.73 287.75 1721.59 287.75Z" fill="white"/>
<path d="M1738.89 287.75H1733.5C1732.36 287.75 1731.44 286.83 1731.44 285.69V281.25C1731.44 280.11 1732.36 279.19 1733.5 279.19H1738.89C1740.03 279.19 1740.95 280.11 1740.95 281.25V285.69C1740.96 286.82 1740.03 287.75 1738.89 287.75Z" fill="white"/>
<path d="M1913.71 316.55H1792.28C1790.28 316.55 1788.65 314.92 1788.65 312.92C1788.65 310.92 1790.28 309.29 1792.28 309.29H1913.71C1915.71 309.29 1917.34 310.92 1917.34 312.92C1917.34 314.91 1915.71 316.55 1913.71 316.55Z" fill="#B7E1FF"/>
<path d="M1822.37 372.59H1700.94C1698.94 372.59 1697.31 370.96 1697.31 368.96C1697.31 366.96 1698.94 365.33 1700.94 365.33H1822.37C1824.37 365.33 1826 366.96 1826 368.96C1826 370.96 1824.37 372.59 1822.37 372.59Z" fill="#B7E1FF"/>
<path d="M1844.74 372.59H1832.18C1831.5 372.59 1830.94 372.03 1830.94 371.35V366.57C1830.94 365.89 1831.5 365.33 1832.18 365.33H1844.74C1845.42 365.33 1845.98 365.89 1845.98 366.57V371.35C1845.98 372.04 1845.43 372.59 1844.74 372.59Z" fill="#B7E1FF"/>
<path d="M1863.68 372.59H1851.11C1850.43 372.59 1849.87 372.03 1849.87 371.35V366.57C1849.87 365.89 1850.43 365.33 1851.11 365.33H1863.68C1864.36 365.33 1864.92 365.89 1864.92 366.57V371.35C1864.93 372.04 1864.37 372.59 1863.68 372.59Z" fill="#B7E1FF"/>
<path d="M1914.87 332.38H1713.78C1712.42 332.38 1711.32 331.27 1711.32 329.92C1711.32 328.56 1712.43 327.46 1713.78 327.46H1914.87C1916.23 327.46 1917.34 328.57 1917.34 329.92C1917.34 331.27 1916.23 332.38 1914.87 332.38Z" fill="#B7E1FF"/>
<path d="M1914.87 343.01H1713.78C1712.42 343.01 1711.32 341.9 1711.32 340.55C1711.32 339.2 1712.43 338.09 1713.78 338.09H1914.87C1916.23 338.09 1917.34 339.2 1917.34 340.55C1917.34 341.9 1916.23 343.01 1914.87 343.01Z" fill="#B7E1FF"/>
<path d="M1979.96 457.92H1746.31C1743.77 457.92 1741.71 455.86 1741.71 453.32V352.77C1741.71 350.23 1743.77 348.16 1746.31 348.16H1979.96C1982.5 348.16 1984.57 350.22 1984.57 352.77V453.31C1984.57 455.86 1982.5 457.92 1979.96 457.92Z" fill="#51D0DE"/>
<path d="M1974.21 452.77H1752.07C1750.02 452.77 1748.35 451.11 1748.35 449.05V380.72C1748.35 378.67 1750.02 377 1752.07 377H1974.21C1976.26 377 1977.93 378.67 1977.93 380.72V449.05C1977.93 451.1 1976.26 452.77 1974.21 452.77Z" fill="white"/>
<path d="M1759.17 364.81H1753.78C1752.64 364.81 1751.72 363.89 1751.72 362.75V358.31C1751.72 357.17 1752.64 356.25 1753.78 356.25H1759.17C1760.31 356.25 1761.23 357.17 1761.23 358.31V362.75C1761.23 363.88 1760.31 364.81 1759.17 364.81Z" fill="white"/>
<path d="M1776.47 364.81H1771.08C1769.94 364.81 1769.02 363.89 1769.02 362.75V358.31C1769.02 357.17 1769.94 356.25 1771.08 356.25H1776.47C1777.61 356.25 1778.53 357.17 1778.53 358.31V362.75C1778.53 363.88 1777.61 364.81 1776.47 364.81Z" fill="white"/>
<path d="M1793.77 364.81H1788.38C1787.24 364.81 1786.32 363.89 1786.32 362.75V358.31C1786.32 357.17 1787.24 356.25 1788.38 356.25H1793.77C1794.91 356.25 1795.83 357.17 1795.83 358.31V362.75C1795.83 363.88 1794.91 364.81 1793.77 364.81Z" fill="white"/>
<path d="M1968.58 393.61H1847.14C1845.14 393.61 1843.51 391.98 1843.51 389.98C1843.51 387.98 1845.15 386.35 1847.14 386.35H1968.58C1970.58 386.35 1972.21 387.98 1972.21 389.98C1972.22 391.97 1970.58 393.61 1968.58 393.61Z" fill="#51D0DE"/>
<path d="M1877.25 449.66H1755.82C1753.82 449.66 1752.19 448.03 1752.19 446.03C1752.19 444.03 1753.82 442.4 1755.82 442.4H1877.25C1879.25 442.4 1880.88 444.03 1880.88 446.03C1880.88 448.02 1879.25 449.66 1877.25 449.66Z" fill="#51D0DE"/>
<path d="M1899.62 449.66H1887.05C1886.37 449.66 1885.81 449.1 1885.81 448.42V443.64C1885.81 442.96 1886.37 442.4 1887.05 442.4H1899.62C1900.3 442.4 1900.86 442.96 1900.86 443.64V448.42C1900.86 449.1 1900.3 449.66 1899.62 449.66Z" fill="#51D0DE"/>
<path d="M1918.56 449.66H1906C1905.32 449.66 1904.76 449.1 1904.76 448.42V443.64C1904.76 442.96 1905.32 442.4 1906 442.4H1918.56C1919.24 442.4 1919.8 442.96 1919.8 443.64V448.42C1919.8 449.1 1919.24 449.66 1918.56 449.66Z" fill="#51D0DE"/>
<path d="M1969.75 409.44H1768.66C1767.3 409.44 1766.2 408.33 1766.2 406.98C1766.2 405.62 1767.31 404.52 1768.66 404.52H1969.75C1971.11 404.52 1972.21 405.63 1972.21 406.98C1972.22 408.33 1971.11 409.44 1969.75 409.44Z" fill="#51D0DE"/>
<path d="M1969.75 420.08H1768.66C1767.3 420.08 1766.2 418.97 1766.2 417.62C1766.2 416.26 1767.31 415.16 1768.66 415.16H1969.75C1971.11 415.16 1972.21 416.27 1972.21 417.62C1972.22 418.97 1971.11 420.08 1969.75 420.08Z" fill="#51D0DE"/>
<path d="M2070.97 431.07C2070.97 448.48 2056.86 462.6 2039.45 462.6C2022.04 462.6 2007.93 448.49 2007.93 431.07C2007.93 413.66 2022.04 399.55 2039.45 399.55C2056.85 399.54 2070.97 413.66 2070.97 431.07Z" fill="#9CD499"/>
<path d="M2036.31 442.71C2036.28 442.71 2036.25 442.71 2036.22 442.71C2035.56 442.69 2034.94 442.39 2034.51 441.9L2025.95 432.17C2025.07 431.17 2025.17 429.66 2026.17 428.78C2027.16 427.9 2028.68 428 2029.56 429L2036.45 436.83L2052.93 420.7C2053.88 419.77 2055.4 419.79 2056.32 420.74C2057.25 421.69 2057.23 423.21 2056.28 424.13L2037.99 442.03C2037.54 442.47 2036.94 442.71 2036.31 442.71Z" fill="white"/>
<path d="M2272.95 284.63H2072.51C2067.37 284.63 2063.17 280.43 2063.17 275.29V203.67C2063.17 198.53 2067.37 194.33 2072.51 194.33H2272.95C2278.09 194.33 2282.29 198.53 2282.29 203.67V275.29C2282.29 280.42 2278.09 284.63 2272.95 284.63Z" fill="#51D0DE"/>
<path d="M2089.63 271V320.82L2147.04 263.41C2147.04 263.42 2090.8 271 2089.63 271Z" fill="#51D0DE"/>
<path d="M2263.04 275.68H2082.42C2078.06 275.68 2074.5 272.12 2074.5 267.76V211.21C2074.5 206.85 2078.06 203.29 2082.42 203.29H2263.04C2267.4 203.29 2270.96 206.85 2270.96 211.21V267.76C2270.96 272.11 2267.4 275.68 2263.04 275.68Z" fill="white"/>
<path d="M2181.49 221.19H2092.75C2090.61 221.19 2088.86 219.44 2088.86 217.3C2088.86 215.16 2090.61 213.41 2092.75 213.41H2181.49C2183.63 213.41 2185.38 215.16 2185.38 217.3C2185.38 219.43 2183.63 221.19 2181.49 221.19Z" fill="#51D0DE"/>
<path d="M2255.61 236.07H2091.02C2089.83 236.07 2088.86 235.1 2088.86 233.91V233.87C2088.86 232.68 2089.83 231.71 2091.02 231.71H2255.61C2256.8 231.71 2257.77 232.68 2257.77 233.87V233.91C2257.77 235.09 2256.8 236.07 2255.61 236.07Z" fill="#51D0DE"/>
<path d="M2255.61 244.54H2091.02C2089.83 244.54 2088.86 243.57 2088.86 242.38V242.34C2088.86 241.15 2089.83 240.18 2091.02 240.18H2255.61C2256.8 240.18 2257.77 241.15 2257.77 242.34V242.38C2257.77 243.57 2256.8 244.54 2255.61 244.54Z" fill="#51D0DE"/>
<path d="M2221.59 272.56H2216.2C2215.06 272.56 2214.14 271.64 2214.14 270.5V266.06C2214.14 264.92 2215.06 264 2216.2 264H2221.59C2222.73 264 2223.65 264.92 2223.65 266.06V270.5C2223.65 271.64 2222.73 272.56 2221.59 272.56Z" fill="#51D0DE"/>
<path d="M2238.89 272.56H2233.5C2232.36 272.56 2231.44 271.64 2231.44 270.5V266.06C2231.44 264.92 2232.36 264 2233.5 264H2238.89C2240.03 264 2240.95 264.92 2240.95 266.06V270.5C2240.95 271.64 2240.03 272.56 2238.89 272.56Z" fill="#51D0DE"/>
<path d="M2256.19 272.56H2250.8C2249.66 272.56 2248.74 271.64 2248.74 270.5V266.06C2248.74 264.92 2249.66 264 2250.8 264H2256.19C2257.33 264 2258.25 264.92 2258.25 266.06V270.5C2258.25 271.64 2257.33 272.56 2256.19 272.56Z" fill="#51D0DE"/>
<path d="M1838.97 1793.63C1838.97 1793.63 1550.78 1612.6 1747.73 1418.55C1944.68 1224.5 2208.26 1026.09 2384.94 1102.84C2561.62 1179.59 2545.73 1276.62 2739.79 1417.1C2933.85 1557.58 2888.95 1669.09 2854.2 1725.57C2819.45 1782.05 2813.65 1796.53 2813.65 1796.53L1838.97 1793.63Z" fill="#E7F3FE"/>
<path d="M2059.1 1279.8C2101.77 1241.79 2133.11 1264.46 2156.45 1289.8C2175.05 1310 2177.65 1314.47 2193.02 1335.4C2195.3 1338.51 2197.06 1341.96 2197.13 1345.81C2197.56 1368.94 2209.4 1466.76 2196.24 1500.51C2180.9 1539.85 1991.75 1557.85 1991.75 1557.85L2059.1 1279.8Z" fill="#303C60"/>
<path d="M2180.23 1522.91C2179.2 1522.91 2178.34 1522.1 2178.28 1521.06C2178.23 1519.99 2179.05 1519.07 2180.13 1519.02C2185.74 1518.74 2190.31 1516.21 2194.1 1511.31C2215.31 1483.83 2203.38 1392.1 2192.99 1342.22C2192.77 1341.17 2193.45 1340.13 2194.5 1339.91C2195.55 1339.69 2196.59 1340.37 2196.81 1341.42C2199.08 1352.31 2206.67 1390.98 2209.03 1431.25C2211.46 1472.61 2207.48 1500.35 2197.18 1513.69C2192.72 1519.47 2187.05 1522.58 2180.32 1522.92C2180.3 1522.91 2180.27 1522.91 2180.23 1522.91Z" fill="#303C60"/>
<path d="M2075.1 1268.46C1993.08 1313.8 2043.09 1467.17 1939.07 1521.84C1910.25 1536.99 1821.71 1613.86 1879.73 1715.21C1917.68 1781.51 2031.09 1767.22 2068.43 1708.54C2105.78 1649.88 2075.1 1268.46 2075.1 1268.46Z" fill="#303C60"/>
<path d="M1856.84 1617.15C1856.75 1617.15 1856.67 1617.14 1856.58 1617.13C1855.51 1616.99 1854.76 1616.01 1854.91 1614.94C1854.98 1614.4 1856.77 1601.49 1864.95 1584.38C1872.49 1568.61 1887.12 1546.22 1914.03 1529.09C1962.16 1498.46 1994.11 1469.6 2031.88 1327.3C2032.16 1326.26 2033.23 1325.64 2034.26 1325.92C2035.3 1326.2 2035.92 1327.26 2035.64 1328.3C2017.39 1397.06 1999.29 1443.54 1978.68 1474.58C1959.55 1503.41 1939.86 1517.26 1916.11 1532.37C1866.11 1564.19 1858.83 1614.93 1858.76 1615.44C1858.64 1616.44 1857.8 1617.15 1856.84 1617.15Z" fill="#303C60"/>
<path d="M1858.63 1577.43C1858.27 1577.43 1857.91 1577.33 1857.59 1577.13C1856.68 1576.56 1856.41 1575.35 1856.98 1574.44C1868.87 1555.61 1884.02 1540.17 1902 1528.54C1969.59 1484.83 1980.78 1459.7 2036.6 1315.76C2036.99 1314.76 2038.12 1314.26 2039.12 1314.65C2040.12 1315.04 2040.62 1316.17 2040.23 1317.17C2012.32 1389.13 1995.64 1431.3 1977.39 1461.19C1957.79 1493.29 1935.68 1511.39 1904.11 1531.81C1886.61 1543.13 1871.85 1558.17 1860.27 1576.52C1859.91 1577.11 1859.28 1577.43 1858.63 1577.43Z" fill="#303C60"/>
<path d="M2072.27 1364.17C2044.03 1422.82 2048.38 1476.04 2048.38 1476.04C2048.38 1476.04 2051.64 1496.68 2064.67 1501.02C2077.7 1505.36 2096.17 1492.33 2095.08 1474.95C2093.99 1457.57 2099.42 1415.22 2105.94 1400.01C2112.45 1384.81 2072.27 1364.17 2072.27 1364.17Z" fill="#F09959"/>
<path d="M1923.07 1771.68C1924.85 1787.68 1920.85 1786.35 1935.07 1789.02C1949.29 1791.69 1974.63 1781.91 1974.63 1781.91L1946.18 1729.01L1923.07 1771.68Z" fill="#51D0DE"/>
<path d="M2051.78 1444.54C2043.78 1470.54 1983.77 1450.54 1962.77 1456.54C1941.77 1462.54 1923.76 1550.55 1920.76 1629.57C1917.76 1708.59 1921.76 1771.59 1929.76 1781.59C1937.76 1791.59 2069.78 1795.59 2081.78 1791.59C2093.78 1787.59 1981.77 1737.58 1981.77 1737.58C1981.77 1737.58 1974.77 1645.57 1983.77 1598.56C1992.77 1551.55 2073.78 1489.54 2073.78 1489.54L2051.78 1444.54Z" fill="#F09959"/>
<path d="M2079.79 1452.54C2100.79 1484.54 2155.8 1480.54 2174.8 1506.55C2193.8 1532.55 2233.81 1675.58 2233.81 1675.58L2275.82 1530.56C2275.82 1530.56 2309.89 1524.84 2298.82 1548.56C2279.14 1590.76 2271.81 1726.89 2250.47 1746.23C2226.74 1767.73 2203.13 1750.23 2189.8 1712.58C2176.91 1676.16 2144.79 1597.56 2121.79 1567.56C2098.79 1537.56 2073.78 1489.55 2073.78 1489.55L2079.79 1452.54Z" fill="#F09959"/>
<path d="M1988.77 1456.54C2030.78 1505.55 2112.79 1503.55 2130.79 1497.55C2148.79 1491.55 2148.79 1491.55 2148.79 1491.55C2148.79 1491.55 2162.79 1486.55 2174.79 1500.55C2186.79 1514.55 2215.8 1602.57 2220.8 1622.57C2225.8 1642.57 2233.8 1675.58 2233.8 1675.58C2233.8 1675.58 2212.34 1701.33 2212.34 1727.34C2212.34 1753.34 2221.45 1753.57 2221.45 1753.57C2221.45 1753.57 2194.79 1747.59 2188.79 1731.59C2182.79 1715.59 2128.78 1570.56 2128.78 1570.56L1979.76 1573.56L1981.76 1737.59C1981.76 1737.59 1968.76 1725.59 1950.76 1737.59C1932.76 1749.59 1926.76 1777.6 1929.76 1781.6C1932.76 1785.6 1923.76 1785.6 1923.76 1782.6C1923.76 1779.6 1906.76 1706.59 1918.76 1586.57C1930.76 1466.55 1953.76 1453.55 1966.77 1452.55C1979.77 1451.54 1988.77 1456.54 1988.77 1456.54Z" fill="#75A1DE"/>
<path d="M2215.36 1751.49C2215.64 1751.58 2215.81 1751.59 2215.81 1751.59C2215.81 1751.59 2215.64 1751.56 2215.36 1751.49Z" fill="#51D0DE"/>
<path d="M2221.13 1679.21C2212.46 1681.88 2197.79 1712.55 2197.79 1712.55C2197.79 1712.55 2164.45 1639.87 2154.45 1539.18L2142.55 1607.49C2158.98 1651.6 2184.76 1720.81 2188.8 1731.58C2194.29 1746.22 2216.43 1752.33 2219.46 1753C2218.63 1752.72 2216.8 1751.61 2215.28 1747.22C2214.4 1746.42 2209.4 1744.08 2208.46 1743.22C2200.46 1735.89 2203.79 1718.55 2209.13 1699.21C2214.46 1679.88 2229.8 1676.55 2221.13 1679.21Z" fill="#51D0DE"/>
<path d="M1986.94 1573.42L1970.41 1497.85C1952.41 1523.19 1950.41 1609.87 1957.74 1669.22C1963.76 1717.89 1972.75 1730.52 1978.94 1735.59C1980.77 1736.67 1981.77 1737.59 1981.77 1737.59L1979.77 1573.56L1986.94 1573.42Z" fill="#51D0DE"/>
<path d="M1939.07 1497.18C1969.74 1579.86 1954.41 1596.53 1994.77 1693.58C2017.31 1747.78 2060.78 1788.6 2060.78 1788.6C2060.78 1788.6 2095.79 1797.6 2139.79 1794.6C2183.8 1791.6 2216.01 1788.58 2216.01 1788.58C2216.01 1788.58 2169.79 1760.6 2167.79 1741.6C2165.79 1722.6 2157.11 1647.22 2168.44 1593.88C2177.29 1552.22 2140.78 1510.57 2140.78 1510.57L2079.77 1507.57L1939.07 1497.18Z" fill="#75A1DE"/>
<path opacity="0.5" d="M1993.09 1623.87C1987.76 1604.53 2015.76 1629.87 2061.77 1634.54C2107.78 1639.21 2159.12 1631.87 2133.79 1639.87C2108.45 1647.87 2039.1 1635.87 2051.77 1661.21C2066.68 1691.03 2084.29 1719.89 2109.78 1737.23C2126.45 1748.57 2166.46 1759.23 2127.78 1753.23C2089.11 1747.23 2047.76 1701.89 2029.76 1672.55C2011.76 1643.21 1994.28 1628.18 1993.09 1623.87Z" fill="#51D0DE"/>
<path d="M2094.96 1467.34C2095.37 1447.38 2100.23 1413.31 2105.93 1400.01C2110.6 1389.12 2091.3 1375.44 2079.97 1368.55L2070.39 1368.14C2068.93 1371.32 2067.56 1374.48 2066.29 1377.62C2056.18 1444 2086.44 1471.43 2100.87 1476.95C2107.1 1479.33 2114.08 1479.6 2120.05 1479.06C2111.15 1475.89 2102.47 1472.29 2094.96 1467.34Z" fill="#E38540"/>
<path d="M2076.65 1496.85C2073.18 1496.85 2069.58 1496.43 2066 1495.56C2057.66 1493.53 2037.75 1485.79 2033.12 1458.02C2033.02 1457.42 2033.43 1456.85 2034.03 1456.75C2034.63 1456.65 2035.2 1457.06 2035.3 1457.66C2039.71 1484.14 2058.61 1491.49 2066.53 1493.42C2078.83 1496.42 2091.89 1493.64 2096.9 1486.96C2100.92 1481.6 2098.51 1470.19 2098.48 1470.08C2098.35 1469.48 2098.73 1468.9 2099.32 1468.77C2099.91 1468.64 2100.5 1469.02 2100.63 1469.62C2100.74 1470.13 2103.28 1482.13 2098.66 1488.3C2094.56 1493.75 2086.11 1496.85 2076.65 1496.85Z" fill="#F5CE5C"/>
<path d="M2170.76 1390.26C2163.98 1426.09 2148.31 1454.99 2121.79 1449.54C2095.27 1444.09 2067.4 1406.25 2074.74 1370.54C2082.08 1334.82 2109.52 1310.29 2136.04 1315.73C2162.55 1321.18 2179.8 1342.53 2170.76 1390.26Z" fill="#F09959"/>
<path d="M2265.14 1567.19C2265.14 1567.19 2216.13 1698.88 2213.8 1712.55C2211.47 1726.22 2216.13 1734.89 2217.47 1734.89C2218.8 1734.89 2260.48 1663.54 2260.48 1663.54L2265.14 1567.19Z" fill="#F09959"/>
<path d="M2267.14 1561.41C2271.14 1548.07 2264.92 1531.18 2264.92 1531.18L2282.7 1533.4L2267.14 1561.41Z" fill="#F09959"/>
<path d="M2286.68 1538.67H2237.06C2234.05 1538.67 2231.89 1535.77 2232.75 1532.88L2264.07 1427.86C2264.64 1425.95 2266.39 1424.65 2268.38 1424.65H2318C2321.01 1424.65 2323.17 1427.55 2322.31 1430.44L2290.99 1535.45C2290.42 1537.36 2288.67 1538.67 2286.68 1538.67Z" fill="#51D0DE"/>
<path d="M2292.9 1538.67H2243.29C2240.28 1538.67 2238.12 1535.77 2238.98 1532.88L2270.3 1427.86C2270.87 1425.95 2272.62 1424.65 2274.61 1424.65H2324.22C2327.23 1424.65 2329.39 1427.55 2328.53 1430.44L2297.21 1535.45C2296.65 1537.36 2294.89 1538.67 2292.9 1538.67Z" fill="#2E5B9A"/>
<path d="M2256.98 1462.55C2251.69 1481.61 2248.13 1497.26 2249.03 1497.51C2249.93 1497.76 2254.94 1482.51 2260.23 1463.45C2265.52 1444.39 2269.08 1428.74 2268.18 1428.49C2267.29 1428.24 2262.27 1443.49 2256.98 1462.55Z" fill="#9CBEED"/>
<path d="M2290.7 1569.86C2292.17 1552.54 2307.17 1536.31 2312.87 1531.13C2314.61 1529.56 2315.58 1527.32 2315.56 1524.98C2315.48 1516.35 2315.09 1495.97 2313.31 1493.59C2311.04 1490.56 2305.35 1451.54 2302.7 1453.06C2300.05 1454.57 2303.46 1488.67 2303.46 1488.67C2303.46 1488.67 2297.02 1485.64 2293.61 1484.13C2290.2 1482.61 2276.18 1498.15 2276.18 1498.15C2276.18 1498.15 2269.61 1514.75 2287.58 1507.64C2308.92 1499.19 2292.91 1522.75 2278.69 1537.87C2266.97 1550.32 2276.94 1553.08 2276.94 1553.08L2286.41 1552.7L2290.7 1569.86Z" fill="#F09959"/>
<path d="M2285.33 1583.48C2283.76 1583.48 2281.98 1583.24 2280.19 1582.68C2275.58 1581.24 2267.52 1576.6 2265.39 1561.68C2265.3 1561.08 2265.72 1560.52 2266.33 1560.43C2266.94 1560.35 2267.49 1560.76 2267.58 1561.37C2269.4 1574.13 2275.59 1578.79 2280.46 1580.45C2284.44 1581.81 2287.73 1581.18 2288.56 1580.72C2288.61 1580.34 2288.86 1580 2289.24 1579.84C2289.81 1579.61 2290.45 1579.89 2290.68 1580.46C2290.9 1581.02 2290.77 1581.64 2290.33 1582.12C2289.55 1582.95 2287.67 1583.48 2285.33 1583.48Z" fill="#F5CE5C"/>
<path d="M2283.47 1579.2C2282 1579.2 2280.46 1579.09 2279 1578.88C2270.43 1577.63 2264.68 1573.28 2263.24 1566.94C2263.1 1566.35 2263.48 1565.75 2264.07 1565.62C2264.67 1565.49 2265.26 1565.86 2265.39 1566.45C2266.77 1572.5 2272.27 1575.07 2276.64 1576.16C2282.77 1577.69 2288.52 1576.75 2289.21 1575.95C2289.51 1575.42 2290.17 1575.24 2290.71 1575.54C2291.24 1575.84 2291.42 1576.53 2291.12 1577.06C2290.29 1578.53 2287.07 1579.2 2283.47 1579.2Z" fill="#F5CE5C"/>
<path d="M2140.33 1408.91C2139.79 1408.91 2139.24 1408.87 2138.7 1408.79C2130.29 1407.5 2125.2 1396.65 2127.13 1384.08C2128.02 1378.25 2130.34 1372.96 2133.64 1369.19C2137.16 1365.18 2141.39 1363.32 2145.57 1363.96C2153.98 1365.25 2159.07 1376.1 2157.14 1388.67C2155.33 1400.42 2148.14 1408.91 2140.33 1408.91ZM2143.96 1367.73C2141.45 1367.73 2138.86 1369.13 2136.56 1371.75C2133.74 1374.97 2131.76 1379.55 2130.97 1384.66C2129.43 1394.72 2133.23 1404 2139.28 1404.93C2145.32 1405.86 2151.73 1398.14 2153.27 1388.08C2154.81 1378.02 2151.01 1368.74 2144.96 1367.81C2144.64 1367.75 2144.3 1367.73 2143.96 1367.73Z" fill="white"/>
<path d="M2168.07 1408.96C2167.8 1408.96 2167.54 1408.94 2167.27 1408.9C2161.76 1408.06 2158.77 1398.72 2160.47 1387.65C2162.17 1376.58 2167.82 1368.55 2173.32 1369.41C2176.16 1369.84 2178.39 1372.44 2179.61 1376.73C2180.72 1380.62 2180.9 1385.57 2180.12 1390.66C2178.5 1401.19 2173.31 1408.96 2168.07 1408.96ZM2172.5 1372.3C2169.25 1372.3 2164.84 1378.55 2163.38 1388.1C2161.86 1398.02 2164.45 1405.49 2167.72 1405.99C2171.01 1406.47 2175.69 1400.14 2177.21 1390.22C2177.93 1385.54 2177.77 1381.04 2176.78 1377.54C2175.91 1374.48 2174.49 1372.58 2172.88 1372.33C2172.75 1372.31 2172.62 1372.3 2172.5 1372.3Z" fill="white"/>
<path d="M2131.11 1375.77C2130.93 1375.77 2130.75 1375.75 2130.57 1375.69L2065.22 1357.02C2064.18 1356.72 2063.59 1355.64 2063.88 1354.61C2064.17 1353.58 2065.25 1352.98 2066.29 1353.27L2131.64 1371.94C2132.68 1372.24 2133.27 1373.32 2132.98 1374.35C2132.74 1375.21 2131.96 1375.77 2131.11 1375.77Z" fill="white"/>
<path d="M2177.79 1335.14C2076.66 1394.71 2071.1 1354.7 2071.1 1354.7L2077.1 1297.8L2137.11 1301.13L2177.79 1335.14Z" fill="#303C60"/>
<path d="M2078.93 1367.92C2081.28 1377.99 2078.07 1387.35 2071.75 1388.82C2065.43 1390.29 2058.41 1383.33 2056.05 1373.26C2053.7 1363.19 2056.91 1353.83 2063.23 1352.35C2069.55 1350.89 2076.57 1357.86 2078.93 1367.92Z" fill="#F09959"/>
<path d="M2072 1381.15C2072 1383.35 2070.22 1385.13 2068.02 1385.13C2065.82 1385.13 2064.04 1383.35 2064.04 1381.15C2064.04 1378.95 2065.82 1377.17 2068.02 1377.17C2070.21 1377.17 2072 1378.95 2072 1381.15Z" fill="#F5CE5C"/>
<path d="M2852.18 1806.72H1840.55C1835.43 1806.72 1831.28 1802.57 1831.28 1797.45C1831.28 1792.33 1835.43 1788.18 1840.55 1788.18H2852.18C2857.3 1788.18 2861.45 1792.33 2861.45 1797.45C2861.45 1802.57 2857.3 1806.72 2852.18 1806.72Z" fill="#2E5B9A"/>
<path d="M2080.34 1786.39C2080.34 1786.39 2042.2 1786.87 2041.72 1790.25C2041.24 1793.63 2043.17 1795.08 2056.68 1797.49C2070.2 1799.9 2222.26 1800.87 2223.71 1799.9C2225.16 1798.93 2269.57 1788.31 2269.57 1788.31L2162.89 1786.38H2080.34V1786.39Z" fill="#DBE5EB"/>
<path d="M2101.11 1761.01C2101.11 1761.01 2128.45 1749.01 2136.45 1754.34C2144.45 1759.67 2167.57 1784.13 2167.57 1784.13L2101.11 1761.01Z" fill="#F09959"/>
<path d="M2166.06 1786.3C2165.54 1786.95 2164.77 1787.22 2164.33 1786.9L2108.08 1745.02C2105.05 1742.76 2103.61 1739.31 2105.07 1737.49C2106.53 1735.67 2110.21 1736.32 2113.08 1738.78L2166.28 1784.48C2166.67 1784.84 2166.58 1785.65 2166.06 1786.3Z" fill="#2E5B9A"/>
<path d="M2018.42 1755.9C2018.42 1755.9 2063.76 1773.9 2069.1 1773.9C2074.43 1773.9 2104.22 1753.9 2114.22 1756.56C2124.22 1759.22 2173.12 1783.9 2171.79 1785.9C2170.46 1787.9 2156.45 1792.57 2115.11 1791.23C2073.77 1789.9 2006.42 1783.9 2006.42 1783.9L2018.42 1755.9Z" fill="#F09959"/>
<path d="M2585.83 1788.95H2401.02C2398.28 1788.95 2396.05 1786.71 2396.05 1783.98V1754.82C2396.05 1752.09 2398.29 1749.85 2401.02 1749.85H2585.83C2592.69 1749.85 2598.31 1755.47 2598.31 1762.33V1776.48C2598.31 1783.33 2592.69 1788.95 2585.83 1788.95Z" fill="#F37168"/>
<path d="M2571.54 1756.46H2396.07C2394.84 1758.5 2394.12 1760.88 2394.12 1763.42V1775.37C2394.12 1777.91 2394.84 1780.29 2396.07 1782.33H2571.54C2577.77 1782.33 2582.87 1777.23 2582.87 1771V1767.79C2582.87 1761.56 2577.77 1756.46 2571.54 1756.46Z" fill="#F2E5DE"/>
<path d="M2579.64 1749.85H2439.1C2437.25 1749.85 2435.74 1748.34 2435.74 1746.49V1729.55C2435.74 1727.7 2437.25 1726.19 2439.1 1726.19H2579.64C2584.27 1726.19 2588.06 1729.98 2588.06 1734.61V1741.42C2588.06 1746.06 2584.27 1749.85 2579.64 1749.85Z" fill="#7BCEE8"/>
<path d="M2567.9 1730.2H2435.76C2434.83 1731.43 2434.29 1732.87 2434.29 1734.41V1741.64C2434.29 1743.18 2434.83 1744.62 2435.76 1745.85H2567.9C2572.59 1745.85 2576.43 1742.77 2576.43 1739V1737.06C2576.43 1733.28 2572.6 1730.2 2567.9 1730.2Z" fill="#F2E5DE"/>
<path d="M2603.68 1247.91H2453.79C2449.01 1247.91 2446.52 1244 2448.26 1239.22L2470.93 1176.95C2472.67 1172.17 2478 1168.26 2482.78 1168.26H2632.67C2637.45 1168.26 2639.94 1172.17 2638.2 1176.95L2615.53 1239.22C2613.79 1244 2608.46 1247.91 2603.68 1247.91Z" fill="#51D0DE"/>
<path d="M2598.6 1241.39H2463.62C2459.48 1241.39 2457.33 1238 2458.83 1233.86L2477.6 1182.29C2479.11 1178.15 2483.73 1174.76 2487.86 1174.76H2622.84C2626.98 1174.76 2629.13 1178.15 2627.63 1182.29L2608.86 1233.86C2607.36 1238 2602.74 1241.39 2598.6 1241.39Z" fill="white"/>
<path d="M2513.28 1244.29C2500.85 1277.12 2481.71 1287.25 2481.71 1287.25C2481.71 1287.25 2495.32 1268.42 2493.35 1259.25C2491.38 1250.08 2484.09 1246.21 2484.09 1246.21L2513.28 1244.29Z" fill="#51D0DE"/>
<path d="M2609.44 1193.12H2522.43C2521 1193.12 2520.26 1191.95 2520.78 1190.53L2520.82 1190.41C2521.34 1188.98 2522.93 1187.82 2524.36 1187.82H2611.37C2612.8 1187.82 2613.54 1188.99 2613.02 1190.41L2612.98 1190.53C2612.46 1191.95 2610.87 1193.12 2609.44 1193.12Z" fill="#51D0DE"/>
<path d="M2605.4 1204.22H2518.39C2516.96 1204.22 2516.22 1203.05 2516.74 1201.63L2516.78 1201.51C2517.3 1200.08 2518.89 1198.92 2520.32 1198.92H2607.33C2608.76 1198.92 2609.5 1200.09 2608.98 1201.51L2608.94 1201.63C2608.42 1203.05 2606.83 1204.22 2605.4 1204.22Z" fill="#51D0DE"/>
<path d="M2600.83 1216.77H2513.82C2512.39 1216.77 2511.65 1215.6 2512.17 1214.18L2512.21 1214.06C2512.73 1212.63 2514.32 1211.47 2515.75 1211.47H2602.76C2604.19 1211.47 2604.93 1212.64 2604.41 1214.06L2604.37 1214.18C2603.85 1215.6 2602.26 1216.77 2600.83 1216.77Z" fill="#51D0DE"/>
<path d="M2508.86 1202.05C2505.42 1211.51 2496.36 1219.19 2488.62 1219.19C2480.89 1219.19 2477.41 1211.52 2480.86 1202.05C2484.31 1192.59 2493.37 1184.91 2501.1 1184.91C2508.83 1184.91 2512.3 1192.58 2508.86 1202.05Z" fill="#51D0DE"/>
<path d="M2518.48 1409.86H2511.05C2509.48 1409.86 2508.67 1408.59 2509.24 1407.02L2511.47 1400.9C2512.04 1399.33 2513.77 1398.06 2515.34 1398.06H2522.77C2524.34 1398.06 2525.15 1399.33 2524.58 1400.9L2522.35 1407.02C2521.79 1408.59 2520.05 1409.86 2518.48 1409.86Z" fill="#51D0DE"/>
<path d="M2542.32 1409.86H2534.89C2533.32 1409.86 2532.51 1408.59 2533.08 1407.02L2535.31 1400.9C2535.88 1399.33 2537.62 1398.06 2539.18 1398.06H2546.61C2548.18 1398.06 2548.99 1399.33 2548.42 1400.9L2546.19 1407.02C2545.62 1408.59 2543.89 1409.86 2542.32 1409.86Z" fill="#51D0DE"/>
<path d="M2566.15 1409.86H2558.72C2557.15 1409.86 2556.34 1408.59 2556.91 1407.02L2559.14 1400.9C2559.71 1399.33 2561.44 1398.06 2563.01 1398.06H2570.44C2572.01 1398.06 2572.82 1399.33 2572.25 1400.9L2570.02 1407.02C2569.46 1408.59 2567.72 1409.86 2566.15 1409.86Z" fill="#51D0DE"/>
<path d="M2424.04 1362.8H2274.15C2269.37 1362.8 2266.88 1358.89 2268.62 1354.11L2291.29 1291.84C2293.03 1287.06 2298.36 1283.15 2303.14 1283.15H2453.03C2457.81 1283.15 2460.3 1287.06 2458.56 1291.84L2435.89 1354.11C2434.16 1358.89 2428.82 1362.8 2424.04 1362.8Z" fill="#51D0DE"/>
<path d="M2418.96 1356.28H2283.98C2279.84 1356.28 2277.69 1352.89 2279.19 1348.75L2297.96 1297.18C2299.47 1293.04 2304.09 1289.65 2308.23 1289.65H2443.21C2447.35 1289.65 2449.5 1293.04 2448 1297.18L2429.23 1348.75C2427.72 1352.89 2423.1 1356.28 2418.96 1356.28Z" fill="white"/>
<path d="M2281.75 1359.17C2270.29 1392 2282.04 1402.13 2282.04 1402.13C2282.04 1402.13 2282.13 1383.3 2290.78 1374.13C2299.43 1364.96 2309.52 1361.1 2309.52 1361.1L2281.75 1359.17Z" fill="#51D0DE"/>
<path d="M2382.33 1312.35H2308.91C2307.6 1312.35 2306.91 1311.27 2307.39 1309.96L2307.58 1309.43C2308.06 1308.12 2309.53 1307.04 2310.84 1307.04H2384.26C2385.57 1307.04 2386.26 1308.12 2385.78 1309.43L2385.59 1309.96C2385.11 1311.27 2383.64 1312.35 2382.33 1312.35Z" fill="#51D0DE"/>
<path d="M2378.29 1323.45H2304.87C2303.56 1323.45 2302.87 1322.37 2303.35 1321.06L2303.54 1320.53C2304.02 1319.22 2305.49 1318.14 2306.8 1318.14H2380.22C2381.53 1318.14 2382.22 1319.22 2381.74 1320.53L2381.55 1321.06C2381.07 1322.38 2379.6 1323.45 2378.29 1323.45Z" fill="#51D0DE"/>
<path d="M2373.72 1336H2300.3C2298.99 1336 2298.3 1334.92 2298.78 1333.61L2298.97 1333.08C2299.45 1331.77 2300.92 1330.69 2302.23 1330.69H2375.65C2376.96 1330.69 2377.65 1331.77 2377.17 1333.08L2376.98 1333.61C2376.5 1334.93 2375.03 1336 2373.72 1336Z" fill="#51D0DE"/>
<path d="M2560.58 1433.27H2415.91C2413.32 1433.27 2411.97 1432.19 2412.91 1430.88L2413.29 1430.35C2414.23 1429.03 2417.12 1427.96 2419.71 1427.96H2564.38C2566.97 1427.96 2568.32 1429.03 2567.37 1430.35L2566.99 1430.88C2566.06 1432.2 2563.17 1433.27 2560.58 1433.27Z" fill="#51D0DE"/>
<path d="M2552.62 1451.62H2407.95C2405.36 1451.62 2404.01 1450.54 2404.96 1449.23L2405.34 1448.7C2406.28 1447.39 2409.17 1446.31 2411.76 1446.31H2556.43C2559.02 1446.31 2560.37 1447.39 2559.42 1448.7L2559.04 1449.23C2558.1 1450.54 2555.21 1451.62 2552.62 1451.62Z" fill="#51D0DE"/>
<path d="M2407.83 1340.35H2397.21C2392.43 1340.35 2389.94 1336.44 2391.68 1331.66L2399.59 1309.94C2401.33 1305.16 2406.66 1301.25 2411.44 1301.25H2422.06C2426.84 1301.25 2429.33 1305.16 2427.59 1309.94L2419.68 1331.66C2417.95 1336.44 2412.61 1340.35 2407.83 1340.35Z" fill="#51D0DE"/>
<path d="M2778.33 1760.16C2797.61 1654.37 2793.39 1616.53 2741.75 1530.19C2690.11 1443.84 2685.18 1283.15 2665.72 1330.28C2646.26 1377.41 2648.87 1495.76 2709.88 1553.2C2770.89 1610.63 2779.1 1636.35 2782.72 1659.73C2786.34 1683.11 2774.01 1754.96 2774.01 1754.96L2778.33 1760.16Z" fill="#9CD499"/>
<path d="M2787.99 1691.99C2788.02 1691.58 2788.05 1691.18 2788.08 1690.78C2786.95 1682.1 2780.82 1637.46 2772.34 1619.85C2762.93 1600.3 2721.65 1566.27 2710.07 1523.54C2698.49 1480.81 2680.12 1447.71 2668.07 1420.72C2652.16 1385.09 2660.86 1337.72 2674.01 1322.33C2673.69 1322.12 2673.37 1321.98 2673.05 1321.89L2668.68 1324.53C2667.73 1325.9 2666.74 1327.8 2665.72 1330.28C2646.26 1377.41 2648.87 1495.76 2709.88 1553.2C2770.89 1610.63 2779.1 1636.35 2782.72 1659.73C2783.7 1666.04 2783.51 1675.87 2782.72 1686.87L2787.99 1691.99Z" fill="#74B570"/>
<path d="M2751.98 1741.5C2766.32 1617.18 2761.54 1574.15 2733.81 1474.69C2706.08 1375.24 2886.82 1148.6 2881.08 1187.8C2875.34 1227.01 2856.22 1324.55 2806.49 1385.75C2756.76 1446.95 2752.94 1496.68 2762.5 1549.28C2772.06 1601.88 2760.59 1724.28 2760.59 1724.28L2754.85 1746.28L2751.98 1741.5Z" fill="#9CD499"/>
<path d="M2758.58 1689.84C2758.56 1689.84 2758.55 1689.84 2758.53 1689.84C2757.87 1689.81 2757.35 1689.26 2757.38 1688.59C2757.39 1688.21 2758.82 1649.88 2758.1 1618.42C2757.38 1586.93 2748.85 1532.98 2743.66 1514.45C2738.93 1497.57 2732.99 1440.98 2761.84 1382.53C2776.21 1353.42 2787.68 1335.01 2803.56 1309.54C2819.25 1284.36 2838.78 1253.03 2869.76 1197.83C2870.08 1197.25 2870.81 1197.05 2871.39 1197.37C2871.97 1197.69 2872.17 1198.42 2871.85 1199C2840.84 1254.25 2821.3 1285.61 2805.59 1310.81C2789.75 1336.23 2778.31 1354.59 2763.99 1383.59C2735.47 1441.36 2741.31 1497.17 2745.97 1513.8C2751.19 1532.45 2759.78 1586.71 2760.5 1618.37C2761.22 1649.9 2759.79 1688.3 2759.78 1688.68C2759.76 1689.33 2759.22 1689.84 2758.58 1689.84Z" fill="#74B570"/>
<path d="M2756.76 1786.16C2765.37 1702.96 2766.81 1743.99 2731.06 1630.95C2690.15 1501.57 2836.13 1386.71 2860.04 1433.57C2883.95 1480.43 2911.68 1627.7 2901.16 1622.92C2890.64 1618.14 2820.83 1481.39 2818.92 1487.13C2817.01 1492.87 2724.25 1540.68 2728.07 1589.45C2731.9 1638.22 2767.28 1715.68 2767.28 1715.68L2766.32 1787.12L2756.76 1786.16Z" fill="#9CD499"/>
<path d="M2766.32 1786.15C2766.28 1786.15 2766.24 1786.15 2766.2 1786.14L2756.64 1785.18C2756.32 1785.15 2756.03 1784.99 2755.83 1784.74C2755.63 1784.49 2755.53 1784.18 2755.57 1783.86C2756.57 1774.25 2757.48 1766.15 2758.22 1759.65C2762.23 1724.33 2762.23 1724.33 2751.26 1694.07C2746.31 1680.4 2739.52 1661.67 2729.92 1631.31C2722.74 1608.61 2720.89 1585.08 2724.41 1561.38C2727.51 1540.49 2734.69 1519.89 2745.73 1500.15C2764.66 1466.31 2794.46 1437.25 2821.64 1426.11C2840.53 1418.37 2854.92 1420.89 2861.11 1433.03C2871.26 1452.92 2883.39 1493.65 2893.57 1541.97C2899.44 1569.86 2908.07 1618.43 2903.17 1623.56C2902.5 1624.26 2901.57 1624.43 2900.67 1624.02C2894.93 1621.41 2875.93 1587.88 2849.71 1540.8C2836.57 1517.19 2823 1492.84 2819.34 1488.63C2817.86 1490.27 2814.14 1492.84 2806.42 1498.07C2780.44 1515.69 2726.37 1552.37 2729.27 1589.36C2733.03 1637.36 2768.02 1714.41 2768.37 1715.19C2768.44 1715.35 2768.48 1715.53 2768.48 1715.7L2767.52 1784.97C2767.52 1785.31 2767.37 1785.63 2767.12 1785.85C2766.9 1786.04 2766.62 1786.15 2766.32 1786.15ZM2758.08 1782.91L2765.14 1783.62L2766.07 1715.93C2763.86 1711.05 2730.56 1636.6 2726.87 1589.54C2723.86 1551.16 2778.71 1513.95 2805.06 1496.08C2811.32 1491.83 2817.24 1487.82 2817.78 1486.71C2817.95 1486.18 2818.42 1485.8 2818.98 1485.75C2821.3 1485.53 2825.88 1493.08 2851.79 1539.62C2870.38 1573.01 2895.8 1618.65 2901.52 1621.76C2901.96 1621.04 2903.26 1617.12 2900.73 1596.93C2898.9 1582.33 2895.55 1563.12 2891.28 1542.84C2881.13 1494.54 2869.05 1453.89 2858.95 1434.11C2853.39 1423.22 2840.12 1421.11 2822.53 1428.32C2774.86 1447.86 2701.83 1534.54 2732.19 1630.58C2741.77 1660.89 2748.55 1679.59 2753.5 1693.25C2764.65 1724.04 2764.65 1724.04 2760.59 1759.92C2759.86 1766.48 2759.02 1773.86 2758.08 1782.91Z" fill="#74B570"/>
<path d="M2786.82 1789.61H2743.42C2740.44 1789.61 2737.77 1787.91 2737.49 1785.8L2722.91 1676.17C2722.24 1671.11 2725.58 1666.85 2730.36 1666.85H2799.88C2804.66 1666.85 2808 1671.11 2807.33 1676.17L2792.75 1785.8C2792.47 1787.91 2789.8 1789.61 2786.82 1789.61Z" fill="#7BCEE8"/>
<path d="M2781.67 1785.83H2775.46C2772.42 1785.83 2769.98 1784.07 2770.03 1781.88L2772.23 1687.19C2772.34 1682.48 2776.2 1678.52 2780.81 1678.52H2790.24C2794.85 1678.52 2798.2 1682.48 2797.7 1687.19L2787.63 1781.88C2787.38 1784.07 2784.71 1785.83 2781.67 1785.83Z" fill="#A2DFF2"/>
<path d="M2735.41 1632.4L2736.18 1631.06C2733.37 1620.91 2731.02 1610.8 2729.52 1601.36C2731.07 1619.23 2735.41 1632.4 2735.41 1632.4Z" fill="#74B570"/>
<path d="M2735.41 1552.27C2732.59 1559.32 2730.87 1566.67 2729.93 1573.92C2742.74 1531.87 2814.07 1493.9 2818.71 1487.5L2819.53 1485.89C2792.73 1478.41 2749.89 1516.06 2735.41 1552.27Z" fill="#74B570"/>
<path d="M2901.23 1620.33C2900.69 1620.33 2900.2 1619.96 2900.06 1619.42L2887.1 1566.69C2876.98 1525.37 2864.38 1473.94 2850.24 1451.05C2847.91 1447.28 2837.73 1442.17 2823.3 1443.19C2803.81 1444.57 2766.23 1458.04 2733.6 1532.72C2733.33 1533.33 2732.63 1533.6 2732.02 1533.34C2731.41 1533.07 2731.14 1532.37 2731.4 1531.76C2764.54 1455.92 2803.09 1442.21 2823.13 1440.79C2838.71 1439.69 2849.56 1445.38 2852.28 1449.78C2866.62 1472.99 2878.74 1522.46 2889.43 1566.11L2902.39 1618.84C2902.55 1619.48 2902.15 1620.13 2901.51 1620.29C2901.42 1620.32 2901.32 1620.33 2901.23 1620.33Z" fill="#74B570"/>
<path d="M2863.21 1551.54C2863.16 1551.54 2863.12 1551.54 2863.07 1551.53C2862.41 1551.45 2861.94 1550.86 2862.02 1550.2C2862.07 1549.77 2866.93 1506.42 2855.53 1460.84C2855.37 1460.2 2855.76 1459.55 2856.4 1459.38C2857.05 1459.22 2857.69 1459.61 2857.86 1460.25C2869.37 1506.27 2864.46 1550.03 2864.4 1550.47C2864.33 1551.09 2863.82 1551.54 2863.21 1551.54Z" fill="#74B570"/>
<path d="M2849.82 1524.75C2849.77 1524.75 2849.73 1524.75 2849.68 1524.74C2849.02 1524.66 2848.55 1524.07 2848.63 1523.41C2848.68 1523.01 2853.28 1483.33 2850.07 1450.53C2850.01 1449.87 2850.49 1449.28 2851.15 1449.22C2851.8 1449.15 2852.4 1449.64 2852.46 1450.3C2855.69 1483.36 2851.06 1523.29 2851.01 1523.69C2850.94 1524.3 2850.42 1524.75 2849.82 1524.75Z" fill="#74B570"/>
<path d="M2804.2 1311.86C2803.75 1311.86 2803.32 1311.61 2803.12 1311.18C2802.83 1310.58 2803.08 1309.87 2803.68 1309.58C2804.02 1309.42 2838.33 1292.64 2858.18 1255.79C2858.49 1255.21 2859.22 1254.99 2859.81 1255.3C2860.39 1255.61 2860.61 1256.34 2860.3 1256.93C2840.07 1294.49 2805.08 1311.58 2804.73 1311.75C2804.55 1311.82 2804.37 1311.86 2804.2 1311.86Z" fill="#74B570"/>
<path d="M2778.85 1355.31C2778.29 1355.31 2777.79 1354.92 2777.68 1354.35C2777.55 1353.7 2777.96 1353.07 2778.61 1352.93C2778.89 1352.87 2806.99 1346.85 2840.37 1319.86C2840.89 1319.44 2841.64 1319.52 2842.06 1320.04C2842.48 1320.56 2842.4 1321.31 2841.88 1321.73C2808.01 1349.11 2779.38 1355.22 2779.09 1355.28C2779.02 1355.3 2778.93 1355.31 2778.85 1355.31Z" fill="#74B570"/>
<path d="M2757.91 1397.33C2757.42 1397.33 2757.12 1397.31 2757.04 1397.31C2756.38 1397.26 2755.88 1396.69 2755.93 1396.02C2755.98 1395.35 2756.56 1394.86 2757.22 1394.91C2757.41 1394.92 2776.78 1395.98 2807.82 1372.7C2808.35 1372.3 2809.1 1372.41 2809.5 1372.94C2809.9 1373.47 2809.79 1374.22 2809.26 1374.62C2780.76 1396 2762.11 1397.33 2757.91 1397.33Z" fill="#74B570"/>
<path d="M391.81 1774.26C391.81 1774.26 115.37 1276.4 322.3 1160.22C487.39 1067.54 632.21 1229.73 808.9 1116.77C1036.84 971.04 1209.64 1068.6 1333.15 1250C1425.83 1386.13 1474.92 1474.19 1521.42 1580.19C1593.83 1745.28 1440.32 1782.94 1440.32 1782.94L391.81 1774.26Z" fill="#E7F3FE"/>
<path d="M1155.63 1777.51L1029.6 1777.74C1027.8 1777.74 1026.3 1775.91 1026.2 1773.68C1026.1 1771.44 1027.43 1769.48 1029.22 1769.32L1154.75 1758.05C1164.94 1757.13 1174.22 1761.08 1174.49 1766.9C1174.75 1772.71 1165.86 1777.49 1155.63 1777.51Z" fill="#75A1DE"/>
<path d="M992.45 1759.66C996.79 1758.57 1004.76 1734.8 1004.76 1734.8C1004.76 1734.8 913.75 1704.11 875.15 1684.11L821.37 1746.31C890.44 1763.52 989.22 1760.47 992.45 1759.66Z" fill="#F09959"/>
<path d="M978.45 1725.39C1000.85 1731.18 1036.48 1716.7 1043.14 1718.15C1049.8 1719.6 1077.64 1734.08 1084.3 1741.32C1090.96 1748.56 1114.57 1771.01 1110.33 1772.46C1106.09 1773.91 1076.43 1752.19 1072.8 1751.46C1069.17 1750.74 1067.35 1755.8 1037.69 1761.6C1008.03 1767.39 972.17 1752.43 972.17 1752.43L978.45 1725.39Z" fill="#F09959"/>
<path d="M1014.08 1747.83C1014.08 1747.83 1048.58 1739.14 1052.82 1740.59C1057.06 1742.04 1082.78 1747.83 1100.64 1768.11C1083.69 1763.04 1059.48 1761.59 1052.82 1761.59C1046.16 1761.59 1014.08 1747.83 1014.08 1747.83Z" fill="#E38540"/>
<path d="M1022.33 1733.35C1037.07 1752.18 1074.47 1757.97 1080.14 1764.49C1085.81 1771.01 1066.51 1768.24 1056.34 1767.39C1030.43 1765.22 1012.34 1775.72 991.37 1769.2C970.4 1762.68 965.66 1747.12 965.66 1747.12L1022.33 1733.35Z" fill="#F09959"/>
<path d="M746.18 1399.15C679.72 1431.81 649.31 1455.7 628.67 1544.76C608.03 1633.82 606.95 1718.54 617.81 1781.53C691.58 1783.67 903.02 1791.64 903.02 1791.64C903.02 1791.64 898.99 1662.31 877.39 1559.97C856.75 1462.22 827.43 1424.21 802.45 1406.83C777.47 1389.45 746.18 1399.15 746.18 1399.15Z" fill="#A2DFF2"/>
<path d="M762.26 1702.24C738.44 1678.35 744.88 1516.52 705.78 1443.75L633.01 1579.51L611.01 1692.47C610.82 1725.1 613.27 1755.21 617.8 1781.52C618.06 1783.01 619.43 1784.02 620.91 1783.89C680.98 1778.63 684.33 1752.52 876.21 1723.56C880.76 1722.89 778.47 1718.5 762.26 1702.24Z" fill="#96CFE0"/>
<path d="M739.86 1399.18C731.44 1418.83 748.55 1444.56 775.58 1464.83C802.61 1485.11 819.03 1474 817.58 1458.07C816.13 1442.14 814.68 1425.24 808.41 1415.11C802.13 1404.97 751.93 1396.28 751.93 1396.28C751.93 1396.28 741.3 1395.8 739.86 1399.18Z" fill="white"/>
<path d="M771.96 1300.7L746.18 1399.15C743.65 1405.74 744.34 1413.13 748.06 1419.13C758.56 1436.08 781.14 1468.66 797.3 1464.35C819.02 1458.56 804.54 1418.01 804.54 1418.01L833.5 1315.9L771.96 1300.7Z" fill="#F09959"/>
<path d="M811.45 1306.77L785.72 1296.35L777.99 1316.45C781.54 1402.02 792.44 1436.95 809.17 1446.68C810.07 1433.48 804.54 1418 804.54 1418L825.54 1341.96L811.45 1306.77Z" fill="#E38540"/>
<path d="M882.92 1345.35C877.9 1379.33 864.51 1408.45 840.24 1404.87C815.97 1401.28 774.29 1372.84 779.31 1338.86C784.33 1304.88 838.82 1264.18 863.09 1267.77C887.36 1271.35 887.94 1311.36 882.92 1345.35Z" fill="#F09959"/>
<path d="M698.18 1473.08C700.12 1465.36 669.2 1460.75 664.28 1467C615.65 1528.85 540 1695.94 556.98 1726.14C576.53 1760.9 787.15 1715.25 791.5 1714.17C795.84 1713.08 783.9 1680.5 783.9 1680.5C783.9 1680.5 665.87 1682.67 645.96 1669.28C707.87 1553.06 683.52 1531.56 698.18 1473.08Z" fill="#F09959"/>
<path d="M686.24 1438.32C635.15 1461.22 579.8 1609.92 579.8 1609.92C579.8 1609.92 592.83 1613.18 635.19 1627.3C652.8 1633.17 669.86 1638.61 669.86 1638.61C669.86 1638.61 710.41 1585.99 723.16 1544.75C739.59 1491.64 717.73 1424.2 686.24 1438.32Z" fill="#A2DFF2"/>
<path d="M585.28 1595.97C633.06 1602.13 661.61 1618.77 676.12 1630.13C678.3 1627.1 680.94 1623.35 683.86 1619.07C673.81 1609.65 651.94 1592.86 620.14 1588.41C607.23 1586.61 597.4 1585.44 589.93 1584.69C588.17 1588.88 586.61 1592.67 585.28 1595.97Z" fill="white"/>
<path d="M596.24 1570.07C595.42 1571.93 594.63 1573.74 593.86 1575.5C635.83 1573.82 676.1 1594.27 686.27 1606.75C687.46 1608.21 688.52 1609.5 689.45 1610.66C690.5 1609.05 691.57 1607.39 692.66 1605.68C685.77 1598.9 673.54 1588.01 661.17 1582.61C635.83 1571.56 599.5 1570.18 596.24 1570.07Z" fill="white"/>
<path d="M877.68 1723.1H824.09L816.13 1623.05H886.37L877.68 1723.1Z" fill="#75A1DE"/>
<path d="M777.39 1680.86C792.23 1680.5 816.49 1663.48 824.82 1658.77C833.15 1654.06 880.21 1643.93 882.39 1649C884.56 1654.07 842.93 1664.57 842.93 1664.57L874.07 1666.02C874.07 1666.02 883.12 1679.78 883.85 1688.83C884.57 1697.88 880.95 1710.91 880.95 1710.91L867.19 1698.6C867.19 1698.6 855.97 1704.75 841.85 1713.08C827.73 1721.41 802.39 1716.34 791.53 1714.17C780.67 1712 755.32 1704.03 755.32 1704.03L777.39 1680.86Z" fill="#F09959"/>
<path d="M583.33 1676.15C583.33 1676.15 607.35 1662.27 631.48 1665.65C645.31 1667.59 646.81 1669.84 645.96 1669.27C648.95 1663.66 651.73 1658.27 654.33 1653.09C641.76 1653.67 609.53 1657.07 583.33 1676.15Z" fill="#E38540"/>
<path d="M1341.4 1505.62V1752.18C1341.4 1760.38 1333.67 1767.02 1324.14 1767.02H1272.37C1263.54 1767.02 1256.38 1773.18 1256.38 1780.78H1330.88C1346.92 1780.78 1359.92 1769.6 1359.92 1755.8V1505.62H1341.4V1505.62Z" fill="#51D0DE"/>
<path d="M1303.54 1716.78L1295.32 1715.21C1289.9 1714.18 1286.44 1709.51 1287.64 1704.85L1352.06 1454.58C1353.26 1449.91 1358.68 1446.94 1364.11 1447.97L1372.33 1449.54C1377.75 1450.57 1381.21 1455.24 1380.01 1459.9L1315.58 1710.17C1314.38 1714.84 1308.96 1717.81 1303.54 1716.78Z" fill="#51D0DE"/>
<path d="M1305.78 1717.21L1304.81 1717.03C1300.62 1716.23 1297.95 1712.63 1298.88 1709.03L1364.3 1454.9C1365.23 1451.3 1369.41 1449 1373.6 1449.8L1374.57 1449.98C1378.76 1450.78 1381.43 1454.38 1380.5 1457.98L1315.08 1712.11C1314.16 1715.71 1309.97 1718 1305.78 1717.21Z" fill="#75A1DE"/>
<path d="M1477.28 1795.06H370.66C365.54 1795.06 361.39 1790.91 361.39 1785.79C361.39 1780.67 365.54 1776.52 370.66 1776.52H1477.28C1482.4 1776.52 1486.55 1780.67 1486.55 1785.79C1486.56 1790.91 1482.4 1795.06 1477.28 1795.06Z" fill="#2E5B9A"/>
<path d="M783.12 1258.24C732.98 1289.34 764.71 1322.98 751.38 1380.74C759.57 1383.54 768.52 1367.41 774.23 1354.72C779.94 1342.02 785.02 1323.62 786.92 1324.25C788.82 1324.88 792 1353.45 792 1353.45L799.62 1357.26C799.62 1357.26 810.41 1338.22 809.78 1333.78C809.15 1329.34 800.26 1307.76 811.05 1297.6C817.98 1291.08 846.59 1305.22 846.59 1305.22L818.66 1265.23L783.12 1258.24Z" fill="#F09959"/>
<path opacity="0.5" d="M783.12 1258.24C732.98 1289.34 764.71 1322.98 751.38 1380.74C759.57 1383.54 768.52 1367.41 774.23 1354.72C779.94 1342.02 785.02 1323.62 786.92 1324.25C788.82 1324.88 792 1353.45 792 1353.45L799.62 1357.26C799.62 1357.26 810.41 1338.22 809.78 1333.78C809.15 1329.34 800.26 1307.76 811.05 1297.6C817.98 1291.08 846.59 1305.22 846.59 1305.22L818.66 1265.23L783.12 1258.24Z" fill="#2E5B9A"/>
<path d="M892.92 1291.88C890.38 1322.35 843.15 1312.81 821.2 1285.53C800.25 1259.51 783.02 1277.44 762.17 1286.16C727.26 1300.76 766.61 1216.34 837.07 1229.67C889.93 1239.68 894.61 1271.6 892.92 1291.88Z" fill="#2E5B9A"/>
<path d="M787.95 1324.24C790.12 1335.6 785.87 1345.96 778.47 1347.37C771.07 1348.78 763.31 1340.71 761.14 1329.35C758.97 1317.99 763.22 1307.63 770.62 1306.22C778.02 1304.81 785.79 1312.87 787.95 1324.24Z" fill="#F09959"/>
<path d="M1321.96 1391.61H1076.87C1074.07 1391.61 1071.8 1389.34 1071.8 1386.54V1244.63C1071.8 1241.83 1074.07 1239.56 1076.87 1239.56H1321.96C1324.76 1239.56 1327.03 1241.83 1327.03 1244.63V1386.54C1327.03 1389.34 1324.76 1391.61 1321.96 1391.61Z" fill="#51D0DE"/>
<path d="M1314.79 1386.95H1084.04C1081.6 1386.95 1079.62 1384.97 1079.62 1382.53V1268.43C1079.62 1265.99 1081.6 1264.01 1084.04 1264.01H1314.79C1317.23 1264.01 1319.21 1265.99 1319.21 1268.43V1382.53C1319.21 1384.97 1317.23 1386.95 1314.79 1386.95Z" fill="white"/>
<path d="M1089.8 1256.7H1084.41C1083.27 1256.7 1082.35 1255.78 1082.35 1254.64V1250.2C1082.35 1249.06 1083.27 1248.14 1084.41 1248.14H1089.8C1090.94 1248.14 1091.86 1249.06 1091.86 1250.2V1254.64C1091.86 1255.78 1090.93 1256.7 1089.8 1256.7Z" fill="white"/>
<path d="M1107.09 1256.7H1101.7C1100.56 1256.7 1099.64 1255.78 1099.64 1254.64V1250.2C1099.64 1249.06 1100.56 1248.14 1101.7 1248.14H1107.09C1108.23 1248.14 1109.15 1249.06 1109.15 1250.2V1254.64C1109.16 1255.78 1108.23 1256.7 1107.09 1256.7Z" fill="white"/>
<path d="M1124.39 1256.7H1119C1117.86 1256.7 1116.94 1255.78 1116.94 1254.64V1250.2C1116.94 1249.06 1117.86 1248.14 1119 1248.14H1124.39C1125.53 1248.14 1126.45 1249.06 1126.45 1250.2V1254.64C1126.45 1255.78 1125.53 1256.7 1124.39 1256.7Z" fill="white"/>
<path d="M1311.09 1379.7H1087.75V1271.25H1311.09V1379.7ZM1088.55 1378.9H1310.29V1272.05H1088.55V1378.9Z" fill="#51D0DE"/>
<path d="M1310.69 1357.37H1088.15V1358.17H1310.69V1357.37Z" fill="#51D0DE"/>
<path d="M1310.69 1335.84H1088.15V1336.64H1310.69V1335.84Z" fill="#51D0DE"/>
<path d="M1310.69 1314.31H1088.15V1315.11H1310.69V1314.31Z" fill="#51D0DE"/>
<path d="M1310.69 1292.78H1088.15V1293.58H1310.69V1292.78Z" fill="#51D0DE"/>
<path d="M1279.3 1271.65H1278.5V1379.3H1279.3V1271.65Z" fill="#51D0DE"/>
<path d="M1247.5 1271.65H1246.7V1379.3H1247.5V1271.65Z" fill="#51D0DE"/>
<path d="M1215.71 1271.65H1214.91V1379.3H1215.71V1271.65Z" fill="#51D0DE"/>
<path d="M1183.92 1271.65H1183.12V1379.3H1183.92V1271.65Z" fill="#51D0DE"/>
<path d="M1152.13 1271.65H1151.33V1379.3H1152.13V1271.65Z" fill="#51D0DE"/>
<path d="M1120.34 1271.65H1119.54V1379.3H1120.34V1271.65Z" fill="#51D0DE"/>
<path d="M1302.36 1285.25H1294.88C1292.03 1285.25 1289.69 1282.92 1289.69 1280.06C1289.69 1277.2 1292.03 1274.87 1294.88 1274.87H1302.36C1305.21 1274.87 1307.55 1277.2 1307.55 1280.06C1307.55 1282.92 1305.21 1285.25 1302.36 1285.25Z" fill="#F39892"/>
<path d="M1305.08 1328.69H1292.17C1290.81 1328.69 1289.7 1327.58 1289.7 1326.22V1320.79C1289.7 1319.43 1290.81 1318.32 1292.17 1318.32H1305.08C1306.44 1318.32 1307.55 1319.43 1307.55 1320.79V1326.22C1307.55 1327.58 1306.44 1328.69 1305.08 1328.69Z" fill="#F39892"/>
<path d="M1144.24 1311.56H1126.68C1124.74 1311.56 1123.15 1309.97 1123.15 1308.03V1299.76C1123.15 1297.82 1124.74 1296.23 1126.68 1296.23H1144.24C1146.18 1296.23 1147.77 1297.82 1147.77 1299.76V1308.03C1147.77 1309.97 1146.18 1311.56 1144.24 1311.56Z" fill="#51D0DE"/>
<path d="M1141.76 1309.4H1129.15C1127.76 1309.4 1126.61 1308.26 1126.61 1306.86V1300.92C1126.61 1299.53 1127.75 1298.38 1129.15 1298.38H1141.76C1143.15 1298.38 1144.3 1299.52 1144.3 1300.92V1306.86C1144.3 1308.26 1143.16 1309.4 1141.76 1309.4Z" fill="white"/>
<path d="M1271.68 1376H1254.12C1252.18 1376 1250.59 1374.41 1250.59 1372.47V1364.2C1250.59 1362.26 1252.18 1360.67 1254.12 1360.67H1271.68C1273.62 1360.67 1275.21 1362.26 1275.21 1364.2V1372.47C1275.21 1374.41 1273.62 1376 1271.68 1376Z" fill="#51D0DE"/>
<path d="M1269.2 1373.84H1256.59C1255.2 1373.84 1254.05 1372.7 1254.05 1371.3V1365.36C1254.05 1363.97 1255.19 1362.82 1256.59 1362.82H1269.2C1270.59 1362.82 1271.74 1363.96 1271.74 1365.36V1371.3C1271.74 1372.7 1270.6 1373.84 1269.2 1373.84Z" fill="white"/>
<path d="M1210.04 1300.7H1196.28C1195.35 1300.7 1194.59 1299.94 1194.59 1299.01C1194.59 1298.08 1195.35 1297.32 1196.28 1297.32H1210.04C1210.97 1297.32 1211.73 1298.08 1211.73 1299.01C1211.73 1299.93 1210.97 1300.7 1210.04 1300.7Z" fill="#51D0DE"/>
<path d="M1210.04 1306H1196.28C1195.35 1306 1194.59 1305.24 1194.59 1304.31C1194.59 1303.38 1195.35 1302.62 1196.28 1302.62H1210.04C1210.97 1302.62 1211.73 1303.38 1211.73 1304.31C1211.73 1305.25 1210.97 1306 1210.04 1306Z" fill="#51D0DE"/>
<path d="M1179.63 1364.78H1165.87C1164.94 1364.78 1164.18 1364.02 1164.18 1363.09C1164.18 1362.16 1164.94 1361.4 1165.87 1361.4H1179.63C1180.56 1361.4 1181.32 1362.16 1181.32 1363.09C1181.32 1364.02 1180.56 1364.78 1179.63 1364.78Z" fill="#51D0DE"/>
<path d="M1179.63 1370.09H1165.87C1164.94 1370.09 1164.18 1369.33 1164.18 1368.4C1164.18 1367.47 1164.94 1366.71 1165.87 1366.71H1179.63C1180.56 1366.71 1181.32 1367.47 1181.32 1368.4C1181.32 1369.33 1180.56 1370.09 1179.63 1370.09Z" fill="#51D0DE"/>
<path d="M1108.3 1324.59H1094.54C1093.61 1324.59 1092.85 1323.83 1092.85 1322.9C1092.85 1321.97 1093.61 1321.21 1094.54 1321.21H1108.3C1109.23 1321.21 1109.99 1321.97 1109.99 1322.9C1109.99 1323.83 1109.23 1324.59 1108.3 1324.59Z" fill="#51D0DE"/>
<path d="M1108.3 1329.9H1094.54C1093.61 1329.9 1092.85 1329.14 1092.85 1328.21C1092.85 1327.28 1093.61 1326.52 1094.54 1326.52H1108.3C1109.23 1326.52 1109.99 1327.28 1109.99 1328.21C1109.99 1329.14 1109.23 1329.9 1108.3 1329.9Z" fill="#51D0DE"/>
<path d="M1241.17 1300.7H1227.41C1226.48 1300.7 1225.72 1299.94 1225.72 1299.01C1225.72 1298.08 1226.48 1297.32 1227.41 1297.32H1241.17C1242.1 1297.32 1242.86 1298.08 1242.86 1299.01C1242.86 1299.93 1242.1 1300.7 1241.17 1300.7Z" fill="#51D0DE"/>
<path d="M1241.17 1306H1227.41C1226.48 1306 1225.72 1305.24 1225.72 1304.31C1225.72 1303.38 1226.48 1302.62 1227.41 1302.62H1241.17C1242.1 1302.62 1242.86 1303.38 1242.86 1304.31C1242.86 1305.25 1242.1 1306 1241.17 1306Z" fill="#51D0DE"/>
<path d="M1146.37 1355.36H1125.99C1124.23 1355.36 1122.78 1353.92 1122.78 1352.15V1343C1122.78 1341.24 1124.22 1339.79 1125.99 1339.79H1146.37C1148.13 1339.79 1149.58 1341.23 1149.58 1343V1352.15C1149.58 1353.92 1148.13 1355.36 1146.37 1355.36Z" fill="#9CD499"/>
<path d="M1134.74 1352.8C1134.72 1352.8 1134.7 1352.8 1134.68 1352.8C1134.24 1352.78 1133.83 1352.59 1133.54 1352.26L1129.73 1347.93C1129.15 1347.27 1129.21 1346.26 1129.87 1345.67C1130.53 1345.09 1131.54 1345.15 1132.13 1345.81L1134.83 1348.88L1141.77 1342.09C1142.4 1341.47 1143.41 1341.48 1144.03 1342.11C1144.65 1342.74 1144.64 1343.75 1144.01 1344.37L1135.87 1352.34C1135.56 1352.63 1135.16 1352.8 1134.74 1352.8Z" fill="white"/>
<path d="M1241.59 1289.83H1221.21C1219.45 1289.83 1218 1288.39 1218 1286.62V1277.47C1218 1275.71 1219.44 1274.26 1221.21 1274.26H1241.59C1243.35 1274.26 1244.8 1275.7 1244.8 1277.47V1286.62C1244.79 1288.39 1243.35 1289.83 1241.59 1289.83Z" fill="#9CD499"/>
<path d="M1229.96 1287.26C1229.94 1287.26 1229.92 1287.26 1229.9 1287.26C1229.46 1287.24 1229.05 1287.05 1228.76 1286.72L1224.95 1282.39C1224.37 1281.73 1224.43 1280.72 1225.09 1280.13C1225.75 1279.55 1226.76 1279.61 1227.35 1280.27L1230.05 1283.34L1236.99 1276.55C1237.62 1275.93 1238.63 1275.94 1239.25 1276.57C1239.87 1277.2 1239.86 1278.21 1239.23 1278.83L1231.09 1286.8C1230.78 1287.1 1230.38 1287.26 1229.96 1287.26Z" fill="white"/>
<path d="M1237.92 1347.04C1237.92 1351.04 1234.68 1354.28 1230.68 1354.28C1226.68 1354.28 1223.44 1351.04 1223.44 1347.04C1223.44 1343.04 1226.68 1339.8 1230.68 1339.8C1234.67 1339.8 1237.92 1343.04 1237.92 1347.04Z" fill="#51D0DE"/>
<path d="M1144.14 1369.12C1144.14 1373.12 1140.9 1376.36 1136.9 1376.36C1132.9 1376.36 1129.66 1373.12 1129.66 1369.12C1129.66 1365.12 1132.9 1361.88 1136.9 1361.88C1140.9 1361.88 1144.14 1365.12 1144.14 1369.12Z" fill="#51D0DE"/>
<path d="M1186.13 1457H1038.31C1036.92 1457 1035.8 1455.88 1035.8 1454.49V1372.11C1035.8 1370.72 1036.92 1369.6 1038.31 1369.6H1186.13C1187.52 1369.6 1188.64 1370.72 1188.64 1372.11V1454.49C1188.64 1455.87 1187.52 1457 1186.13 1457Z" fill="#51D0DE"/>
<path d="M1182.95 1453.15H1041.51C1040.22 1453.15 1039.17 1452.1 1039.17 1450.81V1375.8C1039.17 1374.51 1040.22 1373.46 1041.51 1373.46H1182.95C1184.24 1373.46 1185.29 1374.51 1185.29 1375.8V1450.81C1185.29 1452.1 1184.24 1453.15 1182.95 1453.15Z" fill="white"/>
<path d="M1178.62 1448.26H1045.83C1044.37 1448.26 1043.2 1447.08 1043.2 1445.63V1380.97C1043.2 1379.52 1044.38 1378.34 1045.83 1378.34H1178.62C1180.08 1378.34 1181.25 1379.52 1181.25 1380.97V1445.63C1181.25 1447.08 1180.08 1448.26 1178.62 1448.26Z" fill="#51D0DE"/>
<path d="M1112.23 1437.56C1125.63 1437.56 1136.49 1426.7 1136.49 1413.3C1136.49 1399.9 1125.63 1389.04 1112.23 1389.04C1098.83 1389.04 1087.97 1399.9 1087.97 1413.3C1087.97 1426.7 1098.83 1437.56 1112.23 1437.56Z" fill="white"/>
<path d="M1133.12 1413.3C1133.12 1424.84 1123.77 1434.19 1112.23 1434.19C1100.69 1434.19 1091.34 1424.84 1091.34 1413.3C1091.34 1401.76 1100.69 1392.41 1112.23 1392.41C1123.77 1392.41 1133.12 1401.76 1133.12 1413.3Z" fill="#51D0DE"/>
<path d="M1122.52 1412.18L1114.89 1416.59L1107.25 1421V1412.18V1403.36L1114.89 1407.77L1122.52 1412.18Z" fill="white"/>
<path d="M1026.12 1160.22H930.54C928.15 1160.22 926.2 1158.27 926.2 1155.88C926.2 1153.49 928.16 1151.54 930.54 1151.54H1026.12C1028.51 1151.54 1030.46 1153.49 1030.46 1155.88C1030.46 1158.27 1028.51 1160.22 1026.12 1160.22Z" fill="#51D0DE"/>
<path d="M1275.93 1527.34H1180.35C1177.96 1527.34 1176.01 1525.38 1176.01 1522.99C1176.01 1520.6 1177.97 1518.65 1180.35 1518.65H1275.93C1278.32 1518.65 1280.27 1520.61 1280.27 1522.99C1280.28 1525.38 1278.32 1527.34 1275.93 1527.34Z" fill="#51D0DE"/>
<path d="M1275.93 1543.27H1180.35C1177.96 1543.27 1176.01 1541.31 1176.01 1538.93C1176.01 1536.55 1177.97 1534.59 1180.35 1534.59H1275.93C1278.32 1534.59 1280.27 1536.55 1280.27 1538.93C1280.27 1541.31 1278.32 1543.27 1275.93 1543.27Z" fill="#51D0DE"/>
<path d="M1275.93 1560.65H1180.35C1177.96 1560.65 1176.01 1558.69 1176.01 1556.31C1176.01 1553.92 1177.97 1551.96 1180.35 1551.96H1275.93C1278.32 1551.96 1280.27 1553.92 1280.27 1556.31C1280.28 1558.69 1278.32 1560.65 1275.93 1560.65Z" fill="#51D0DE"/>
<path d="M1087.66 1176.88H930.54C928.15 1176.88 926.2 1174.92 926.2 1172.54C926.2 1170.15 928.16 1168.2 930.54 1168.2H1087.67C1090.06 1168.2 1092.01 1170.16 1092.01 1172.54C1092.01 1174.92 1090.05 1176.88 1087.66 1176.88Z" fill="#51D0DE"/>
<path d="M409.28 1417.67C384.3 1440.48 395.16 1463.29 413.62 1505.64C432.08 1548 435.34 1704.39 435.34 1704.39L420.13 1702.22C420.13 1702.22 422.3 1541.48 401.67 1498.03C381.03 1454.59 372.35 1432.86 353.88 1446.98C335.43 1461.12 409.28 1417.67 409.28 1417.67Z" fill="#74B570"/>
<path d="M423 1388.14C419.97 1374.62 401.95 1360 377.86 1347.59C381.44 1367.53 392.93 1400.12 381.04 1406.81C365.01 1415.83 379.48 1370.32 373.29 1345.3C350.67 1334.25 323.46 1325.22 298.39 1320.73C298.43 1320.82 298.45 1320.91 298.49 1321C312.61 1356.84 331.07 1370.96 323.47 1376.39C317.75 1380.47 299.12 1339.07 274.52 1317.85C256.05 1316.87 240.43 1319.37 231.19 1326.69C216.91 1338 207.32 1348.03 221.69 1382.47C229.9 1388.33 240.53 1392.54 252.88 1393.77C285.46 1397.03 300.67 1398.11 277.86 1408.98C266.69 1414.3 247.97 1408.68 232.79 1405.26C237.71 1414.33 243.77 1424.6 251.12 1436.3C255.78 1443.72 260.93 1450.16 266.39 1455.73C276.89 1457.74 286.05 1457.77 290.89 1455.69C306.1 1449.17 345.19 1428.54 354.97 1437.23C364.54 1445.73 282.56 1451.12 288.24 1472.73C327.98 1495.62 373.45 1484.73 381.48 1463.71C392.28 1435.47 432.14 1428.83 423 1388.14Z" fill="#9CD499"/>
<path d="M340.86 1542.58C384.3 1510 428.83 1540.41 451.64 1575.16C474.45 1609.92 458.16 1688.11 458.16 1688.11C458.16 1688.11 449.47 1688.11 449.47 1684.85C449.47 1681.59 473.36 1592.53 416.89 1552.35C381.56 1527.21 356.07 1539.32 352.81 1551.26C349.55 1563.21 366.93 1584.93 366.93 1584.93L340.86 1542.58Z" fill="#74B570"/>
<path d="M440.78 1475.6C397.34 1475.6 383.22 1542.94 395.16 1582.04C407.11 1621.14 423.4 1693.91 423.4 1693.91L434.26 1683.05C434.26 1683.05 392.99 1580.96 402.76 1535.34C412.53 1489.72 436.43 1482.12 440.77 1482.12C445.12 1482.12 440.78 1475.6 440.78 1475.6Z" fill="#9CD499"/>
<path d="M404.34 1582.34C401.28 1578.29 397.51 1574.95 392.9 1572.73C393.5 1575.97 394.25 1579.08 395.16 1582.04C400.6 1599.86 406.95 1624.66 412.24 1646.38C412.72 1643.6 413.46 1639.31 414.61 1632.7C414.88 1631.14 415.09 1629.44 415.24 1627.65C410.99 1613.17 406.97 1597.41 404.34 1582.34Z" fill="#74B570"/>
<path d="M392.46 1582.67C309.92 1547.91 353.41 1500.22 280.64 1531.72C275.51 1533.94 269.27 1539.53 263.01 1547.25C269.49 1549.09 277.34 1550.41 286.07 1549.1C307.79 1545.84 300.19 1563.22 264.35 1567.56C257.59 1568.38 252.11 1569.51 247.55 1571.1C230.48 1603.89 222.78 1647.05 258.91 1662.05C266.03 1665 274.83 1666.7 284.63 1667.33C295.78 1658.47 281.91 1607.19 299.1 1614.26C315.6 1621.06 293.93 1658.22 296.9 1667.59C313.19 1667.29 331.23 1664.63 348.46 1660.36C355.28 1656.54 360.49 1651.41 362.09 1644.67C367.52 1621.86 331.68 1607.74 330.59 1588.19C329.59 1570.22 343.73 1627.73 381.17 1636.19C415.05 1620.38 431.05 1598.91 392.46 1582.67Z" fill="#9CD499"/>
<path d="M451.28 1521.21C442.59 1502.75 465.4 1498.4 464.31 1512.52C463.35 1525.03 463.24 1555.44 476.07 1563.72C498.2 1561.32 528.31 1552.41 551.07 1538.81C551.36 1536.97 551.08 1535.08 550.11 1533.15C540.34 1513.6 477.34 1497.31 496.89 1490.79C512.46 1485.6 539.74 1516.23 561.73 1531.67C574.94 1521.65 583.78 1509.71 583.78 1496.38C583.78 1478.34 561.86 1457.91 533.5 1448.15C520.74 1449.44 508.89 1456.41 490.37 1466.9C463.02 1482.4 469.35 1457.34 495.2 1442.47C472.88 1443.63 450.62 1453.16 434.2 1475.95C434.2 1475.95 435.75 1485.69 425.45 1500.76C397.33 1541.86 429.78 1565.85 468.58 1564.3C466.39 1553.47 457.28 1533.97 451.28 1521.21Z" fill="#9CD499"/>
<path d="M343.47 1540.73C322.23 1557.14 298.64 1576.33 269.67 1589.37C240.71 1602.4 246.5 1644.88 246.5 1644.88C246.5 1644.88 242.16 1608.19 266.29 1595.64C290.43 1583.09 306.36 1568.12 324.7 1565.23C343.04 1562.33 353.18 1559.44 353.18 1559.44C353.18 1559.44 347.39 1547.85 350.77 1543.51C354.15 1539.17 343.47 1540.73 343.47 1540.73Z" fill="#74B570"/>
<path d="M238.78 1348C316.5 1368.76 373.46 1418.48 384.08 1430.55C394.7 1442.62 394.7 1446 394.7 1446L386.49 1461.45L382.63 1459.52C382.63 1459.52 388.91 1446.49 372.49 1429.59C344.19 1400.45 309.73 1377.45 286.08 1367.32C262.43 1357.17 238.78 1348 238.78 1348Z" fill="#74B570"/>
<path d="M453.31 1778.2H423.62C402.51 1778.2 385.39 1761.08 385.39 1739.97V1671.75H491.54V1739.97C491.54 1761.08 474.43 1778.2 453.31 1778.2Z" fill="#F39892"/>
</svg>
