<svg width="1622" height="1000" viewBox="0 0 1622 1000" fill="none" xmlns="http://www.w3.org/2000/svg">
<g clip-path="url(#clip0)">
<rect width="1622" height="1000" rx="90" fill="#51D0DE" fill-opacity="0.1"/>
<path d="M1445.98 399.154H504.697C495.899 399.16 487.464 401.986 481.243 407.01C475.022 412.034 471.524 418.847 471.516 425.952V507.758C471.524 514.863 475.022 521.676 481.243 526.7C487.464 531.724 495.899 534.55 504.697 534.556H1445.98C1454.78 534.55 1463.22 531.724 1469.44 526.7C1475.66 521.676 1479.16 514.863 1479.16 507.758V425.952C1479.16 418.847 1475.66 412.034 1469.44 407.01C1463.22 401.986 1454.78 399.16 1445.98 399.154ZM1475.67 507.758C1475.66 514.114 1472.53 520.208 1466.96 524.702C1461.4 529.197 1453.85 531.726 1445.98 531.735H504.697C496.826 531.726 489.282 529.197 483.716 524.702C478.151 520.208 475.02 514.114 475.009 507.758V425.952C475.02 419.596 478.151 413.502 483.716 409.008C489.282 404.513 496.826 401.984 504.697 401.975H1445.98C1453.85 401.984 1461.4 404.513 1466.96 409.008C1472.53 413.502 1475.66 419.596 1475.67 425.952V507.758Z" fill="black"/>
<path d="M1445.98 727.786H504.697C495.9 727.778 487.466 724.952 481.246 719.928C475.025 714.904 471.526 708.093 471.516 700.988V619.182C471.526 612.077 475.025 605.266 481.246 600.242C487.466 595.218 495.9 592.392 504.697 592.384H1445.98C1454.78 592.392 1463.21 595.218 1469.43 600.242C1475.65 605.266 1479.15 612.077 1479.16 619.182V700.988C1479.15 708.093 1475.65 714.904 1469.43 719.928C1463.21 724.952 1454.78 727.778 1445.98 727.786ZM504.697 595.205C496.826 595.212 489.28 597.74 483.714 602.236C478.148 606.731 475.018 612.825 475.009 619.182V700.988C475.018 707.345 478.148 713.439 483.714 717.934C489.28 722.43 496.826 724.958 504.697 724.965H1445.98C1453.85 724.958 1461.4 722.43 1466.97 717.934C1472.53 713.439 1475.66 707.345 1475.67 700.988V619.182C1475.66 612.825 1472.53 606.731 1466.97 602.236C1461.4 597.74 1453.85 595.212 1445.98 595.205H504.697Z" fill="black"/>
<path d="M1445.98 921.016H504.697C495.9 921.008 487.466 918.182 481.246 913.158C475.025 908.134 471.526 901.323 471.516 894.218V812.412C471.526 805.307 475.025 798.496 481.246 793.472C487.466 788.448 495.9 785.622 504.697 785.614H1445.98C1454.78 785.622 1463.21 788.448 1469.43 793.472C1475.65 798.496 1479.15 805.307 1479.16 812.412V894.218C1479.15 901.323 1475.65 908.134 1469.43 913.158C1463.21 918.182 1454.78 921.008 1445.98 921.016ZM504.697 788.435C496.826 788.442 489.28 790.97 483.714 795.465C478.148 799.961 475.018 806.055 475.009 812.412V894.218C475.018 900.575 478.148 906.669 483.714 911.164C489.28 915.659 496.826 918.188 504.697 918.195H1445.98C1453.85 918.188 1461.4 915.659 1466.97 911.164C1472.53 906.669 1475.66 900.575 1475.67 894.218V812.412C1475.66 806.055 1472.53 799.961 1466.97 795.466C1461.4 790.97 1453.85 788.442 1445.98 788.435H504.697Z" fill="black"/>
<path d="M659.827 512.694H603.943C596.304 512.687 588.98 510.233 583.578 505.87C578.176 501.507 575.137 495.592 575.128 489.422V444.288C575.137 438.118 578.176 432.203 583.578 427.84C588.98 423.477 596.304 421.023 603.943 421.016H659.827C667.466 421.023 674.79 423.477 680.192 427.84C685.594 432.203 688.633 438.118 688.642 444.288V489.422C688.633 495.592 685.594 501.507 680.192 505.87C674.79 510.233 667.466 512.687 659.827 512.694Z" fill="#51D0DE"/>
<path d="M1360.71 504.937H744.243C740.538 504.937 736.984 503.748 734.364 501.632C731.744 499.516 730.272 496.646 730.272 493.653C730.272 490.661 731.744 487.791 734.364 485.675C736.984 483.559 740.538 482.37 744.243 482.37H1360.71C1364.41 482.37 1367.97 483.559 1370.59 485.675C1373.21 487.791 1374.68 490.661 1374.68 493.653C1374.68 496.646 1373.21 499.516 1370.59 501.632C1367.97 503.748 1364.41 504.937 1360.71 504.937Z" fill="#CCCCCC"/>
<path d="M1159.88 456.982H744.243C740.538 456.982 736.984 455.793 734.364 453.677C731.744 451.561 730.272 448.691 730.272 445.698C730.272 442.706 731.744 439.836 734.364 437.72C736.984 435.604 740.538 434.415 744.243 434.415H1159.88C1163.58 434.415 1167.13 435.604 1169.75 437.72C1172.37 439.836 1173.85 442.706 1173.85 445.698C1173.85 448.691 1172.37 451.561 1169.75 453.677C1167.13 455.793 1163.58 456.982 1159.88 456.982Z" fill="black"/>
<path d="M659.827 705.924H603.943C596.304 705.917 588.98 703.463 583.578 699.1C578.176 694.737 575.137 688.822 575.128 682.652V637.518C575.137 631.348 578.176 625.433 583.578 621.07C588.98 616.707 596.304 614.253 603.943 614.246H659.827C667.466 614.253 674.79 616.707 680.192 621.07C685.594 625.433 688.633 631.348 688.642 637.518V682.652C688.633 688.822 685.594 694.737 680.192 699.1C674.79 703.463 667.466 705.917 659.827 705.924Z" fill="#51D0DE"/>
<path d="M1360.71 698.167H744.243C740.538 698.167 736.984 696.978 734.364 694.862C731.744 692.746 730.272 689.876 730.272 686.883C730.272 683.891 731.744 681.021 734.364 678.905C736.984 676.789 740.538 675.6 744.243 675.6H1360.71C1364.41 675.6 1367.97 676.789 1370.59 678.905C1373.21 681.021 1374.68 683.891 1374.68 686.883C1374.68 689.876 1373.21 692.746 1370.59 694.862C1367.97 696.978 1364.41 698.167 1360.71 698.167Z" fill="#CCCCCC"/>
<path d="M1159.88 650.212H744.243C740.538 650.212 736.984 649.023 734.364 646.907C731.744 644.791 730.272 641.921 730.272 638.928C730.272 635.936 731.744 633.066 734.364 630.95C736.984 628.834 740.538 627.645 744.243 627.645H1159.88C1163.58 627.645 1167.13 628.834 1169.75 630.95C1172.37 633.066 1173.85 635.936 1173.85 638.928C1173.85 641.921 1172.37 644.791 1169.75 646.907C1167.13 649.023 1163.58 650.212 1159.88 650.212Z" fill="black"/>
<path d="M659.827 899.154H603.943C596.304 899.147 588.98 896.693 583.578 892.33C578.176 887.967 575.137 882.052 575.128 875.882V830.748C575.137 824.578 578.176 818.663 583.578 814.3C588.98 809.937 596.304 807.483 603.943 807.476H659.827C667.466 807.483 674.79 809.937 680.192 814.3C685.594 818.663 688.633 824.578 688.642 830.748V875.882C688.633 882.052 685.594 887.967 680.192 892.33C674.79 896.693 667.466 899.147 659.827 899.154Z" fill="#51D0DE"/>
<path d="M1360.71 891.397H744.243C740.538 891.397 736.984 890.208 734.364 888.092C731.744 885.976 730.272 883.106 730.272 880.113C730.272 877.121 731.744 874.251 734.364 872.135C736.984 870.019 740.538 868.83 744.243 868.83H1360.71C1364.41 868.83 1367.97 870.019 1370.59 872.135C1373.21 874.251 1374.68 877.121 1374.68 880.113C1374.68 883.106 1373.21 885.976 1370.59 888.092C1367.97 890.208 1364.41 891.397 1360.71 891.397Z" fill="#CCCCCC"/>
<path d="M1159.88 843.442H744.243C740.538 843.442 736.984 842.253 734.364 840.137C731.744 838.021 730.272 835.151 730.272 832.158C730.272 829.166 731.744 826.296 734.364 824.18C736.984 822.064 740.538 820.875 744.243 820.875H1159.88C1163.58 820.875 1167.13 822.064 1169.75 824.18C1172.37 826.296 1173.85 829.166 1173.85 832.158C1173.85 835.151 1172.37 838.021 1169.75 840.137C1167.13 842.253 1163.58 843.442 1159.88 843.442Z" fill="black"/>
<path d="M1466.94 440.057C1489.12 440.057 1507.1 425.533 1507.1 407.617C1507.1 389.7 1489.12 375.176 1466.94 375.176C1444.76 375.176 1426.77 389.7 1426.77 407.617C1426.77 425.533 1444.76 440.057 1466.94 440.057Z" fill="black"/>
<path d="M1482.66 421.016C1482.43 421.016 1482.2 420.98 1481.99 420.909C1481.78 420.838 1481.58 420.734 1481.42 420.603L1449.99 395.215C1449.66 394.95 1449.48 394.591 1449.48 394.217C1449.48 393.843 1449.66 393.485 1449.99 393.22C1450.31 392.956 1450.76 392.807 1451.22 392.807C1451.68 392.807 1452.13 392.956 1452.46 393.22L1483.89 418.608C1484.13 418.805 1484.3 419.057 1484.37 419.33C1484.44 419.604 1484.4 419.887 1484.27 420.145C1484.14 420.403 1483.91 420.623 1483.63 420.778C1483.34 420.933 1483 421.016 1482.66 421.016L1482.66 421.016Z" fill="white"/>
<path d="M1451.22 421.016C1450.88 421.016 1450.54 420.933 1450.25 420.778C1449.96 420.623 1449.74 420.403 1449.61 420.145C1449.48 419.887 1449.44 419.604 1449.51 419.33C1449.58 419.057 1449.74 418.805 1449.99 418.608L1481.42 393.22C1481.58 393.089 1481.78 392.985 1481.99 392.915C1482.2 392.844 1482.43 392.807 1482.66 392.807C1482.89 392.807 1483.11 392.844 1483.32 392.915C1483.54 392.985 1483.73 393.089 1483.89 393.22C1484.05 393.351 1484.18 393.507 1484.27 393.678C1484.36 393.849 1484.4 394.032 1484.4 394.217C1484.4 394.403 1484.36 394.586 1484.27 394.757C1484.18 394.928 1484.05 395.084 1483.89 395.215L1452.46 420.603C1452.29 420.734 1452.1 420.838 1451.89 420.909C1451.68 420.98 1451.45 421.016 1451.22 421.016Z" fill="white"/>
<path d="M517.85 100.275V123.176H516.043C515.457 118.781 514.399 115.282 512.869 112.678C511.372 110.074 509.223 108.007 506.424 106.477C503.624 104.947 500.727 104.182 497.732 104.182C494.347 104.182 491.548 105.223 489.334 107.307C487.12 109.357 486.014 111.701 486.014 114.338C486.014 116.356 486.714 118.195 488.113 119.855C490.132 122.297 494.933 125.552 502.518 129.621C508.702 132.941 512.918 135.497 515.164 137.287C517.443 139.045 519.184 141.128 520.389 143.537C521.626 145.946 522.244 148.469 522.244 151.105C522.244 156.118 520.291 160.448 516.385 164.094C512.511 167.707 507.514 169.514 501.395 169.514C499.474 169.514 497.667 169.367 495.975 169.074C494.965 168.911 492.866 168.326 489.676 167.316C486.518 166.275 484.516 165.754 483.67 165.754C482.856 165.754 482.205 165.998 481.717 166.486C481.261 166.975 480.919 167.984 480.691 169.514H478.885V146.809H480.691C481.538 151.561 482.677 155.126 484.109 157.502C485.542 159.846 487.723 161.799 490.652 163.361C493.615 164.924 496.854 165.705 500.369 165.705C504.438 165.705 507.645 164.631 509.988 162.482C512.365 160.334 513.553 157.795 513.553 154.865C513.553 153.238 513.097 151.594 512.186 149.934C511.307 148.273 509.923 146.727 508.035 145.295C506.766 144.318 503.299 142.251 497.635 139.094C491.971 135.904 487.934 133.365 485.525 131.477C483.149 129.589 481.342 127.505 480.105 125.227C478.868 122.948 478.25 120.441 478.25 117.707C478.25 112.954 480.073 108.869 483.719 105.451C487.365 102.001 492.003 100.275 497.635 100.275C501.15 100.275 504.878 101.138 508.816 102.863C510.639 103.677 511.925 104.084 512.674 104.084C513.52 104.084 514.204 103.84 514.725 103.352C515.278 102.831 515.717 101.805 516.043 100.275H517.85ZM569.998 123.273V150.373C569.998 155.549 570.112 158.723 570.34 159.895C570.6 161.034 570.991 161.831 571.512 162.287C572.065 162.743 572.7 162.971 573.416 162.971C574.425 162.971 575.564 162.694 576.834 162.141L577.518 163.85L564.139 169.367H561.941V159.895C558.1 164.061 555.171 166.682 553.152 167.756C551.134 168.83 549.002 169.367 546.756 169.367C544.249 169.367 542.068 168.651 540.213 167.219C538.39 165.754 537.12 163.882 536.404 161.604C535.688 159.325 535.33 156.102 535.33 151.936V131.965C535.33 129.849 535.102 128.384 534.646 127.57C534.191 126.757 533.507 126.138 532.596 125.715C531.717 125.259 530.105 125.048 527.762 125.08V123.273H543.436V153.205C543.436 157.372 544.152 160.106 545.584 161.408C547.049 162.71 548.807 163.361 550.857 163.361C552.257 163.361 553.836 162.922 555.594 162.043C557.384 161.164 559.5 159.488 561.941 157.014V131.672C561.941 129.133 561.469 127.424 560.525 126.545C559.614 125.633 557.693 125.145 554.764 125.08V123.273H569.998ZM593.875 121.955V132.014C597.618 125.308 601.46 121.955 605.398 121.955C607.189 121.955 608.67 122.508 609.842 123.615C611.014 124.689 611.6 125.943 611.6 127.375C611.6 128.645 611.176 129.719 610.33 130.598C609.484 131.477 608.475 131.916 607.303 131.916C606.163 131.916 604.878 131.363 603.445 130.256C602.046 129.117 601.004 128.547 600.32 128.547C599.734 128.547 599.1 128.872 598.416 129.523C596.951 130.858 595.438 133.055 593.875 136.115V157.551C593.875 160.025 594.184 161.896 594.803 163.166C595.226 164.045 595.975 164.777 597.049 165.363C598.123 165.949 599.669 166.242 601.688 166.242V168H578.787V166.242C581.066 166.242 582.758 165.884 583.865 165.168C584.679 164.647 585.249 163.817 585.574 162.678C585.737 162.124 585.818 160.546 585.818 157.941V140.607C585.818 135.399 585.704 132.307 585.477 131.33C585.281 130.321 584.891 129.589 584.305 129.133C583.751 128.677 583.051 128.449 582.205 128.449C581.196 128.449 580.057 128.693 578.787 129.182L578.299 127.424L591.824 121.955H593.875ZM627.176 121.955V132.014C630.919 125.308 634.76 121.955 638.699 121.955C640.49 121.955 641.971 122.508 643.143 123.615C644.314 124.689 644.9 125.943 644.9 127.375C644.9 128.645 644.477 129.719 643.631 130.598C642.785 131.477 641.775 131.916 640.604 131.916C639.464 131.916 638.178 131.363 636.746 130.256C635.346 129.117 634.305 128.547 633.621 128.547C633.035 128.547 632.4 128.872 631.717 129.523C630.252 130.858 628.738 133.055 627.176 136.115V157.551C627.176 160.025 627.485 161.896 628.104 163.166C628.527 164.045 629.275 164.777 630.35 165.363C631.424 165.949 632.97 166.242 634.988 166.242V168H612.088V166.242C614.367 166.242 616.059 165.884 617.166 165.168C617.98 164.647 618.549 163.817 618.875 162.678C619.038 162.124 619.119 160.546 619.119 157.941V140.607C619.119 135.399 619.005 132.307 618.777 131.33C618.582 130.321 618.191 129.589 617.605 129.133C617.052 128.677 616.352 128.449 615.506 128.449C614.497 128.449 613.357 128.693 612.088 129.182L611.6 127.424L625.125 121.955H627.176ZM669.266 121.955C676.036 121.955 681.473 124.527 685.574 129.67C689.057 134.064 690.799 139.11 690.799 144.807C690.799 148.811 689.839 152.863 687.918 156.965C685.997 161.066 683.344 164.159 679.959 166.242C676.606 168.326 672.863 169.367 668.729 169.367C661.99 169.367 656.635 166.682 652.664 161.311C649.311 156.786 647.635 151.708 647.635 146.076C647.635 141.975 648.644 137.906 650.662 133.869C652.713 129.8 655.398 126.805 658.719 124.885C662.039 122.932 665.555 121.955 669.266 121.955ZM667.752 125.129C666.027 125.129 664.285 125.65 662.527 126.691C660.802 127.701 659.402 129.491 658.328 132.062C657.254 134.634 656.717 137.938 656.717 141.975C656.717 148.485 658.003 154.1 660.574 158.82C663.178 163.54 666.596 165.9 670.828 165.9C673.986 165.9 676.59 164.598 678.641 161.994C680.691 159.39 681.717 154.914 681.717 148.566C681.717 140.624 680.008 134.374 676.59 129.816C674.279 126.691 671.333 125.129 667.752 125.129ZM736.6 123.273V150.373C736.6 155.549 736.714 158.723 736.941 159.895C737.202 161.034 737.592 161.831 738.113 162.287C738.667 162.743 739.301 162.971 740.018 162.971C741.027 162.971 742.166 162.694 743.436 162.141L744.119 163.85L730.74 169.367H728.543V159.895C724.702 164.061 721.772 166.682 719.754 167.756C717.736 168.83 715.604 169.367 713.357 169.367C710.851 169.367 708.67 168.651 706.814 167.219C704.992 165.754 703.722 163.882 703.006 161.604C702.29 159.325 701.932 156.102 701.932 151.936V131.965C701.932 129.849 701.704 128.384 701.248 127.57C700.792 126.757 700.109 126.138 699.197 125.715C698.318 125.259 696.707 125.048 694.363 125.08V123.273H710.037V153.205C710.037 157.372 710.753 160.106 712.186 161.408C713.65 162.71 715.408 163.361 717.459 163.361C718.859 163.361 720.438 162.922 722.195 162.043C723.986 161.164 726.102 159.488 728.543 157.014V131.672C728.543 129.133 728.071 127.424 727.127 126.545C726.215 125.633 724.295 125.145 721.365 125.08V123.273H736.6ZM760.428 131.428C765.669 125.113 770.665 121.955 775.418 121.955C777.859 121.955 779.959 122.574 781.717 123.811C783.475 125.015 784.874 127.017 785.916 129.816C786.632 131.77 786.99 134.764 786.99 138.801V157.893C786.99 160.725 787.218 162.645 787.674 163.654C788.032 164.468 788.602 165.103 789.383 165.559C790.197 166.014 791.678 166.242 793.826 166.242V168H771.707V166.242H772.635C774.718 166.242 776.167 165.933 776.98 165.314C777.827 164.663 778.413 163.719 778.738 162.482C778.868 161.994 778.934 160.464 778.934 157.893V139.582C778.934 135.513 778.396 132.567 777.322 130.744C776.281 128.889 774.507 127.961 772 127.961C768.126 127.961 764.269 130.077 760.428 134.309V157.893C760.428 160.92 760.607 162.792 760.965 163.508C761.421 164.452 762.039 165.152 762.82 165.607C763.634 166.031 765.262 166.242 767.703 166.242V168H745.584V166.242H746.561C748.839 166.242 750.369 165.673 751.15 164.533C751.964 163.361 752.371 161.148 752.371 157.893V141.291C752.371 135.92 752.241 132.648 751.98 131.477C751.753 130.305 751.378 129.507 750.857 129.084C750.369 128.661 749.702 128.449 748.855 128.449C747.944 128.449 746.854 128.693 745.584 129.182L744.852 127.424L758.328 121.955H760.428V131.428ZM828.982 162.971C826.801 165.249 824.669 166.893 822.586 167.902C820.503 168.879 818.257 169.367 815.848 169.367C810.965 169.367 806.701 167.333 803.055 163.264C799.409 159.162 797.586 153.905 797.586 147.492C797.586 141.079 799.604 135.22 803.641 129.914C807.677 124.576 812.869 121.906 819.217 121.906C823.156 121.906 826.411 123.16 828.982 125.666V117.414C828.982 112.303 828.852 109.162 828.592 107.99C828.364 106.818 827.99 106.021 827.469 105.598C826.948 105.174 826.297 104.963 825.516 104.963C824.669 104.963 823.546 105.223 822.146 105.744L821.512 104.035L834.842 98.5664H837.039V150.275C837.039 155.516 837.153 158.723 837.381 159.895C837.641 161.034 838.032 161.831 838.553 162.287C839.106 162.743 839.741 162.971 840.457 162.971C841.336 162.971 842.508 162.694 843.973 162.141L844.51 163.85L831.229 169.367H828.982V162.971ZM828.982 159.553V136.506C828.787 134.292 828.201 132.274 827.225 130.451C826.248 128.628 824.946 127.261 823.318 126.35C821.723 125.406 820.161 124.934 818.631 124.934C815.766 124.934 813.211 126.219 810.965 128.791C808.003 132.176 806.521 137.124 806.521 143.635C806.521 150.21 807.954 155.256 810.818 158.771C813.683 162.255 816.873 163.996 820.389 163.996C823.351 163.996 826.215 162.515 828.982 159.553ZM869.852 123.273H890.701V125.08H889.676C888.211 125.08 887.104 125.406 886.355 126.057C885.639 126.675 885.281 127.456 885.281 128.4C885.281 129.67 885.818 131.428 886.893 133.674L897.781 156.232L907.791 131.525C908.344 130.191 908.621 128.872 908.621 127.57C908.621 126.984 908.507 126.545 908.279 126.252C908.019 125.894 907.612 125.617 907.059 125.422C906.505 125.194 905.529 125.08 904.129 125.08V123.273H918.68V125.08C917.475 125.21 916.548 125.471 915.896 125.861C915.245 126.252 914.529 126.984 913.748 128.059C913.455 128.514 912.902 129.768 912.088 131.818L893.875 176.447C892.117 180.777 889.806 184.048 886.941 186.262C884.109 188.475 881.375 189.582 878.738 189.582C876.818 189.582 875.239 189.029 874.002 187.922C872.765 186.815 872.146 185.546 872.146 184.113C872.146 182.746 872.586 181.639 873.465 180.793C874.376 179.979 875.613 179.572 877.176 179.572C878.25 179.572 879.715 179.93 881.57 180.646C882.872 181.135 883.686 181.379 884.012 181.379C884.988 181.379 886.046 180.874 887.186 179.865C888.357 178.856 889.529 176.903 890.701 174.006L893.875 166.242L877.811 132.502C877.322 131.493 876.541 130.24 875.467 128.742C874.653 127.603 873.986 126.838 873.465 126.447C872.716 125.926 871.512 125.471 869.852 125.08V123.273ZM944.266 121.955C951.036 121.955 956.473 124.527 960.574 129.67C964.057 134.064 965.799 139.11 965.799 144.807C965.799 148.811 964.839 152.863 962.918 156.965C960.997 161.066 958.344 164.159 954.959 166.242C951.606 168.326 947.863 169.367 943.729 169.367C936.99 169.367 931.635 166.682 927.664 161.311C924.311 156.786 922.635 151.708 922.635 146.076C922.635 141.975 923.644 137.906 925.662 133.869C927.713 129.8 930.398 126.805 933.719 124.885C937.039 122.932 940.555 121.955 944.266 121.955ZM942.752 125.129C941.027 125.129 939.285 125.65 937.527 126.691C935.802 127.701 934.402 129.491 933.328 132.062C932.254 134.634 931.717 137.938 931.717 141.975C931.717 148.485 933.003 154.1 935.574 158.82C938.178 163.54 941.596 165.9 945.828 165.9C948.986 165.9 951.59 164.598 953.641 161.994C955.691 159.39 956.717 154.914 956.717 148.566C956.717 140.624 955.008 134.374 951.59 129.816C949.279 126.691 946.333 125.129 942.752 125.129ZM1011.6 123.273V150.373C1011.6 155.549 1011.71 158.723 1011.94 159.895C1012.2 161.034 1012.59 161.831 1013.11 162.287C1013.67 162.743 1014.3 162.971 1015.02 162.971C1016.03 162.971 1017.17 162.694 1018.44 162.141L1019.12 163.85L1005.74 169.367H1003.54V159.895C999.702 164.061 996.772 166.682 994.754 167.756C992.736 168.83 990.604 169.367 988.357 169.367C985.851 169.367 983.67 168.651 981.814 167.219C979.992 165.754 978.722 163.882 978.006 161.604C977.29 159.325 976.932 156.102 976.932 151.936V131.965C976.932 129.849 976.704 128.384 976.248 127.57C975.792 126.757 975.109 126.138 974.197 125.715C973.318 125.259 971.707 125.048 969.363 125.08V123.273H985.037V153.205C985.037 157.372 985.753 160.106 987.186 161.408C988.65 162.71 990.408 163.361 992.459 163.361C993.859 163.361 995.438 162.922 997.195 162.043C998.986 161.164 1001.1 159.488 1003.54 157.014V131.672C1003.54 129.133 1003.07 127.424 1002.13 126.545C1001.22 125.633 999.295 125.145 996.365 125.08V123.273H1011.6ZM1035.48 121.955V132.014C1039.22 125.308 1043.06 121.955 1047 121.955C1048.79 121.955 1050.27 122.508 1051.44 123.615C1052.62 124.689 1053.2 125.943 1053.2 127.375C1053.2 128.645 1052.78 129.719 1051.93 130.598C1051.09 131.477 1050.08 131.916 1048.9 131.916C1047.76 131.916 1046.48 131.363 1045.05 130.256C1043.65 129.117 1042.61 128.547 1041.92 128.547C1041.34 128.547 1040.7 128.872 1040.02 129.523C1038.55 130.858 1037.04 133.055 1035.48 136.115V157.551C1035.48 160.025 1035.79 161.896 1036.4 163.166C1036.83 164.045 1037.58 164.777 1038.65 165.363C1039.72 165.949 1041.27 166.242 1043.29 166.242V168H1020.39V166.242C1022.67 166.242 1024.36 165.884 1025.47 165.168C1026.28 164.647 1026.85 163.817 1027.18 162.678C1027.34 162.124 1027.42 160.546 1027.42 157.941V140.607C1027.42 135.399 1027.31 132.307 1027.08 131.33C1026.88 130.321 1026.49 129.589 1025.91 129.133C1025.35 128.677 1024.65 128.449 1023.81 128.449C1022.8 128.449 1021.66 128.693 1020.39 129.182L1019.9 127.424L1033.43 121.955H1035.48ZM1084.6 121.955V137.189H1082.99C1081.75 132.404 1080.15 129.149 1078.2 127.424C1076.28 125.699 1073.82 124.836 1070.83 124.836C1068.55 124.836 1066.71 125.438 1065.31 126.643C1063.91 127.847 1063.21 129.182 1063.21 130.646C1063.21 132.469 1063.73 134.032 1064.77 135.334C1065.78 136.669 1067.83 138.085 1070.93 139.582L1078.05 143.049C1084.66 146.271 1087.97 150.52 1087.97 155.793C1087.97 159.862 1086.42 163.15 1083.33 165.656C1080.27 168.13 1076.83 169.367 1073.03 169.367C1070.29 169.367 1067.17 168.879 1063.65 167.902C1062.58 167.577 1061.7 167.414 1061.01 167.414C1060.26 167.414 1059.68 167.837 1059.26 168.684H1057.64V152.717H1059.26C1060.17 157.274 1061.91 160.708 1064.48 163.02C1067.05 165.331 1069.93 166.486 1073.12 166.486C1075.37 166.486 1077.19 165.835 1078.59 164.533C1080.02 163.199 1080.74 161.604 1080.74 159.748C1080.74 157.502 1079.94 155.614 1078.35 154.084C1076.79 152.554 1073.64 150.617 1068.92 148.273C1064.2 145.93 1061.11 143.814 1059.65 141.926C1058.18 140.07 1057.45 137.727 1057.45 134.895C1057.45 131.216 1058.7 128.14 1061.21 125.666C1063.75 123.192 1067.02 121.955 1071.02 121.955C1072.78 121.955 1074.91 122.329 1077.42 123.078C1079.08 123.566 1080.19 123.811 1080.74 123.811C1081.26 123.811 1081.67 123.697 1081.96 123.469C1082.25 123.241 1082.6 122.736 1082.99 121.955H1084.6ZM1102.18 140.119C1102.14 146.76 1103.75 151.968 1107.01 155.744C1110.26 159.52 1114.09 161.408 1118.48 161.408C1121.41 161.408 1123.95 160.611 1126.1 159.016C1128.28 157.388 1130.11 154.621 1131.57 150.715L1133.08 151.691C1132.4 156.151 1130.41 160.22 1127.13 163.898C1123.84 167.544 1119.72 169.367 1114.77 169.367C1109.4 169.367 1104.8 167.284 1100.96 163.117C1097.15 158.918 1095.24 153.286 1095.24 146.223C1095.24 138.573 1097.2 132.616 1101.1 128.352C1105.04 124.055 1109.97 121.906 1115.9 121.906C1120.91 121.906 1125.03 123.566 1128.25 126.887C1131.47 130.174 1133.08 134.585 1133.08 140.119H1102.18ZM1102.18 137.287H1122.88C1122.72 134.423 1122.37 132.404 1121.85 131.232C1121.04 129.41 1119.82 127.977 1118.19 126.936C1116.6 125.894 1114.92 125.373 1113.16 125.373C1110.46 125.373 1108.04 126.431 1105.89 128.547C1103.77 130.63 1102.53 133.544 1102.18 137.287ZM1154.47 98.5664V157.893C1154.47 160.692 1154.67 162.548 1155.06 163.459C1155.48 164.37 1156.11 165.07 1156.96 165.559C1157.81 166.014 1159.39 166.242 1161.7 166.242V168H1139.77V166.242C1141.82 166.242 1143.22 166.031 1143.97 165.607C1144.72 165.184 1145.31 164.484 1145.73 163.508C1146.15 162.531 1146.37 160.66 1146.37 157.893V117.268C1146.37 112.222 1146.25 109.13 1146.02 107.99C1145.8 106.818 1145.42 106.021 1144.9 105.598C1144.41 105.174 1143.78 104.963 1143 104.963C1142.15 104.963 1141.08 105.223 1139.77 105.744L1138.94 104.035L1152.27 98.5664H1154.47ZM1184.4 126.789V156.184C1184.4 160.35 1184.86 162.987 1185.77 164.094C1186.97 165.526 1188.59 166.242 1190.6 166.242H1194.66V168H1167.95V166.242H1169.95C1171.25 166.242 1172.44 165.917 1173.51 165.266C1174.59 164.615 1175.32 163.736 1175.71 162.629C1176.13 161.522 1176.35 159.374 1176.35 156.184V126.789H1167.65V123.273H1176.35V120.344C1176.35 115.884 1177.06 112.108 1178.49 109.016C1179.93 105.923 1182.11 103.433 1185.04 101.545C1188 99.6243 1191.32 98.6641 1195 98.6641C1198.42 98.6641 1201.56 99.7708 1204.42 101.984C1206.31 103.449 1207.25 105.093 1207.25 106.916C1207.25 107.893 1206.83 108.82 1205.98 109.699C1205.14 110.546 1204.23 110.969 1203.25 110.969C1202.5 110.969 1201.7 110.708 1200.86 110.188C1200.04 109.634 1199.03 108.479 1197.83 106.721C1196.63 104.93 1195.52 103.726 1194.51 103.107C1193.5 102.489 1192.38 102.18 1191.14 102.18C1189.64 102.18 1188.37 102.587 1187.33 103.4C1186.29 104.182 1185.54 105.419 1185.09 107.111C1184.63 108.771 1184.4 113.085 1184.4 120.051V123.273H1195.93V126.789H1184.4ZM1222.73 123.273H1241.48V125.08C1239.76 125.21 1238.62 125.52 1238.06 126.008C1237.54 126.496 1237.28 127.196 1237.28 128.107C1237.28 129.117 1237.56 130.337 1238.11 131.77L1247.68 157.502L1257.3 136.555L1254.76 129.963C1253.98 128.01 1252.96 126.659 1251.69 125.91C1250.97 125.454 1249.64 125.178 1247.68 125.08V123.273H1268.97V125.08C1266.63 125.178 1264.97 125.601 1263.99 126.35C1263.34 126.87 1263.02 127.701 1263.02 128.84C1263.02 129.491 1263.15 130.158 1263.41 130.842L1273.56 156.525L1282.99 131.77C1283.64 130.012 1283.96 128.612 1283.96 127.57C1283.96 126.952 1283.64 126.398 1282.99 125.91C1282.37 125.422 1281.13 125.145 1279.28 125.08V123.273H1293.39V125.08C1290.55 125.503 1288.47 127.424 1287.14 130.842L1272.2 169.367H1270.19L1259.01 140.803L1245.97 169.367H1244.17L1229.81 131.77C1228.87 129.393 1227.94 127.798 1227.03 126.984C1226.12 126.138 1224.69 125.503 1222.73 125.08V123.273ZM1308.87 98.5664C1310.23 98.5664 1311.39 99.0547 1312.33 100.031C1313.31 100.975 1313.8 102.131 1313.8 103.498C1313.8 104.865 1313.31 106.037 1312.33 107.014C1311.39 107.99 1310.23 108.479 1308.87 108.479C1307.5 108.479 1306.33 107.99 1305.35 107.014C1304.37 106.037 1303.88 104.865 1303.88 103.498C1303.88 102.131 1304.36 100.975 1305.3 100.031C1306.28 99.0547 1307.47 98.5664 1308.87 98.5664ZM1312.92 121.955V157.893C1312.92 160.692 1313.11 162.564 1313.5 163.508C1313.93 164.419 1314.53 165.103 1315.31 165.559C1316.12 166.014 1317.59 166.242 1319.71 166.242V168H1297.98V166.242C1300.16 166.242 1301.62 166.031 1302.37 165.607C1303.12 165.184 1303.71 164.484 1304.13 163.508C1304.58 162.531 1304.81 160.66 1304.81 157.893V140.656C1304.81 135.806 1304.67 132.665 1304.37 131.232C1304.15 130.191 1303.79 129.475 1303.3 129.084C1302.81 128.661 1302.14 128.449 1301.3 128.449C1300.39 128.449 1299.28 128.693 1297.98 129.182L1297.29 127.424L1310.77 121.955H1312.92ZM1338.31 108.576V123.273H1348.76V126.691H1338.31V155.695C1338.31 158.592 1338.72 160.546 1339.53 161.555C1340.38 162.564 1341.45 163.068 1342.75 163.068C1343.83 163.068 1344.87 162.743 1345.88 162.092C1346.89 161.408 1347.67 160.415 1348.22 159.113H1350.12C1348.99 162.303 1347.37 164.712 1345.29 166.34C1343.21 167.935 1341.06 168.732 1338.85 168.732C1337.35 168.732 1335.88 168.326 1334.45 167.512C1333.02 166.665 1331.96 165.477 1331.28 163.947C1330.59 162.385 1330.25 159.992 1330.25 156.77V126.691H1323.17V125.08C1324.96 124.364 1326.79 123.16 1328.64 121.467C1330.53 119.742 1332.21 117.707 1333.67 115.363C1334.42 114.126 1335.46 111.864 1336.79 108.576H1338.31ZM1366.29 98.5664V131.281C1369.9 127.31 1372.76 124.771 1374.88 123.664C1377 122.525 1379.11 121.955 1381.23 121.955C1383.77 121.955 1385.95 122.655 1387.77 124.055C1389.59 125.454 1390.95 127.652 1391.82 130.646C1392.44 132.73 1392.75 136.538 1392.75 142.072V157.893C1392.75 160.725 1392.98 162.661 1393.44 163.703C1393.76 164.484 1394.31 165.103 1395.1 165.559C1395.88 166.014 1397.31 166.242 1399.39 166.242V168H1377.42V166.242H1378.45C1380.53 166.242 1381.98 165.933 1382.79 165.314C1383.6 164.663 1384.17 163.719 1384.5 162.482C1384.6 161.962 1384.65 160.432 1384.65 157.893V142.072C1384.65 137.189 1384.39 133.983 1383.87 132.453C1383.38 130.923 1382.58 129.784 1381.47 129.035C1380.37 128.254 1379.03 127.863 1377.47 127.863C1375.87 127.863 1374.21 128.286 1372.49 129.133C1370.76 129.979 1368.7 131.688 1366.29 134.26V157.893C1366.29 160.952 1366.45 162.857 1366.78 163.605C1367.13 164.354 1367.77 164.989 1368.68 165.51C1369.62 165.998 1371.24 166.242 1373.51 166.242V168H1351.35V166.242C1353.33 166.242 1354.89 165.933 1356.03 165.314C1356.68 164.989 1357.21 164.37 1357.6 163.459C1357.99 162.548 1358.18 160.692 1358.18 157.893V117.414C1358.18 112.303 1358.05 109.162 1357.79 107.99C1357.56 106.818 1357.19 106.021 1356.67 105.598C1356.18 105.174 1355.51 104.963 1354.67 104.963C1353.98 104.963 1352.88 105.223 1351.35 105.744L1350.66 104.035L1364.04 98.5664H1366.29ZM488.113 223.576V238.273H498.562V241.691H488.113V270.695C488.113 273.592 488.52 275.546 489.334 276.555C490.18 277.564 491.255 278.068 492.557 278.068C493.631 278.068 494.673 277.743 495.682 277.092C496.691 276.408 497.472 275.415 498.025 274.113H499.93C498.79 277.303 497.179 279.712 495.096 281.34C493.012 282.935 490.864 283.732 488.65 283.732C487.153 283.732 485.688 283.326 484.256 282.512C482.824 281.665 481.766 280.477 481.082 278.947C480.398 277.385 480.057 274.992 480.057 271.77V241.691H472.977V240.08C474.767 239.364 476.59 238.16 478.445 236.467C480.333 234.742 482.01 232.707 483.475 230.363C484.223 229.126 485.265 226.864 486.6 223.576H488.113ZM516.092 213.566V246.281C519.705 242.31 522.57 239.771 524.686 238.664C526.801 237.525 528.917 236.955 531.033 236.955C533.572 236.955 535.753 237.655 537.576 239.055C539.399 240.454 540.75 242.652 541.629 245.646C542.247 247.73 542.557 251.538 542.557 257.072V272.893C542.557 275.725 542.785 277.661 543.24 278.703C543.566 279.484 544.119 280.103 544.9 280.559C545.682 281.014 547.114 281.242 549.197 281.242V283H527.225V281.242H528.25C530.333 281.242 531.782 280.933 532.596 280.314C533.41 279.663 533.979 278.719 534.305 277.482C534.402 276.962 534.451 275.432 534.451 272.893V257.072C534.451 252.189 534.191 248.983 533.67 247.453C533.182 245.923 532.384 244.784 531.277 244.035C530.171 243.254 528.836 242.863 527.273 242.863C525.678 242.863 524.018 243.286 522.293 244.133C520.568 244.979 518.501 246.688 516.092 249.26V272.893C516.092 275.952 516.255 277.857 516.58 278.605C516.938 279.354 517.573 279.989 518.484 280.51C519.428 280.998 521.04 281.242 523.318 281.242V283H501.15V281.242C503.136 281.242 504.699 280.933 505.838 280.314C506.489 279.989 507.01 279.37 507.4 278.459C507.791 277.548 507.986 275.692 507.986 272.893V232.414C507.986 227.303 507.856 224.162 507.596 222.99C507.368 221.818 506.993 221.021 506.473 220.598C505.984 220.174 505.317 219.963 504.471 219.963C503.787 219.963 502.68 220.223 501.15 220.744L500.467 219.035L513.846 213.566H516.092ZM574.832 236.955C581.603 236.955 587.039 239.527 591.141 244.67C594.624 249.064 596.365 254.11 596.365 259.807C596.365 263.811 595.405 267.863 593.484 271.965C591.564 276.066 588.911 279.159 585.525 281.242C582.173 283.326 578.429 284.367 574.295 284.367C567.557 284.367 562.202 281.682 558.23 276.311C554.878 271.786 553.201 266.708 553.201 261.076C553.201 256.975 554.21 252.906 556.229 248.869C558.279 244.8 560.965 241.805 564.285 239.885C567.605 237.932 571.121 236.955 574.832 236.955ZM573.318 240.129C571.593 240.129 569.852 240.65 568.094 241.691C566.368 242.701 564.969 244.491 563.895 247.062C562.82 249.634 562.283 252.938 562.283 256.975C562.283 263.485 563.569 269.1 566.141 273.82C568.745 278.54 572.163 280.9 576.395 280.9C579.552 280.9 582.156 279.598 584.207 276.994C586.258 274.39 587.283 269.914 587.283 263.566C587.283 255.624 585.574 249.374 582.156 244.816C579.845 241.691 576.899 240.129 573.318 240.129ZM631.863 236.955V252.189H630.252C629.015 247.404 627.42 244.149 625.467 242.424C623.546 240.699 621.089 239.836 618.094 239.836C615.815 239.836 613.976 240.438 612.576 241.643C611.176 242.847 610.477 244.182 610.477 245.646C610.477 247.469 610.997 249.032 612.039 250.334C613.048 251.669 615.099 253.085 618.191 254.582L625.32 258.049C631.928 261.271 635.232 265.52 635.232 270.793C635.232 274.862 633.686 278.15 630.594 280.656C627.534 283.13 624.1 284.367 620.291 284.367C617.557 284.367 614.432 283.879 610.916 282.902C609.842 282.577 608.963 282.414 608.279 282.414C607.531 282.414 606.945 282.837 606.521 283.684H604.91V267.717H606.521C607.433 272.274 609.174 275.708 611.746 278.02C614.318 280.331 617.199 281.486 620.389 281.486C622.635 281.486 624.458 280.835 625.857 279.533C627.29 278.199 628.006 276.604 628.006 274.748C628.006 272.502 627.208 270.614 625.613 269.084C624.051 267.554 620.91 265.617 616.189 263.273C611.469 260.93 608.377 258.814 606.912 256.926C605.447 255.07 604.715 252.727 604.715 249.895C604.715 246.216 605.968 243.14 608.475 240.666C611.014 238.192 614.285 236.955 618.289 236.955C620.047 236.955 622.179 237.329 624.686 238.078C626.346 238.566 627.452 238.811 628.006 238.811C628.527 238.811 628.934 238.697 629.227 238.469C629.52 238.241 629.861 237.736 630.252 236.955H631.863ZM649.441 255.119C649.409 261.76 651.02 266.968 654.275 270.744C657.531 274.52 661.355 276.408 665.75 276.408C668.68 276.408 671.219 275.611 673.367 274.016C675.548 272.388 677.371 269.621 678.836 265.715L680.35 266.691C679.666 271.151 677.68 275.22 674.393 278.898C671.105 282.544 666.987 284.367 662.039 284.367C656.668 284.367 652.062 282.284 648.221 278.117C644.412 273.918 642.508 268.286 642.508 261.223C642.508 253.573 644.461 247.616 648.367 243.352C652.306 239.055 657.238 236.906 663.162 236.906C668.175 236.906 672.293 238.566 675.516 241.887C678.738 245.174 680.35 249.585 680.35 255.119H649.441ZM649.441 252.287H670.145C669.982 249.423 669.64 247.404 669.119 246.232C668.305 244.41 667.085 242.977 665.457 241.936C663.862 240.894 662.186 240.373 660.428 240.373C657.726 240.373 655.301 241.431 653.152 243.547C651.036 245.63 649.799 248.544 649.441 252.287ZM708.865 238.273H727.615V240.08C725.89 240.21 724.751 240.52 724.197 241.008C723.676 241.496 723.416 242.196 723.416 243.107C723.416 244.117 723.693 245.337 724.246 246.77L733.816 272.502L743.436 251.555L740.896 244.963C740.115 243.01 739.09 241.659 737.82 240.91C737.104 240.454 735.77 240.178 733.816 240.08V238.273H755.105V240.08C752.762 240.178 751.102 240.601 750.125 241.35C749.474 241.87 749.148 242.701 749.148 243.84C749.148 244.491 749.279 245.158 749.539 245.842L759.695 271.525L769.119 246.77C769.77 245.012 770.096 243.612 770.096 242.57C770.096 241.952 769.77 241.398 769.119 240.91C768.501 240.422 767.264 240.145 765.408 240.08V238.273H779.52V240.08C776.688 240.503 774.604 242.424 773.27 245.842L758.328 284.367H756.326L745.145 255.803L732.107 284.367H730.301L715.945 246.77C715.001 244.393 714.074 242.798 713.162 241.984C712.251 241.138 710.818 240.503 708.865 240.08V238.273ZM796.756 213.566V246.281C800.369 242.31 803.234 239.771 805.35 238.664C807.465 237.525 809.581 236.955 811.697 236.955C814.236 236.955 816.417 237.655 818.24 239.055C820.063 240.454 821.414 242.652 822.293 245.646C822.911 247.73 823.221 251.538 823.221 257.072V272.893C823.221 275.725 823.449 277.661 823.904 278.703C824.23 279.484 824.783 280.103 825.564 280.559C826.346 281.014 827.778 281.242 829.861 281.242V283H807.889V281.242H808.914C810.997 281.242 812.446 280.933 813.26 280.314C814.074 279.663 814.643 278.719 814.969 277.482C815.066 276.962 815.115 275.432 815.115 272.893V257.072C815.115 252.189 814.855 248.983 814.334 247.453C813.846 245.923 813.048 244.784 811.941 244.035C810.835 243.254 809.5 242.863 807.938 242.863C806.342 242.863 804.682 243.286 802.957 244.133C801.232 244.979 799.165 246.688 796.756 249.26V272.893C796.756 275.952 796.919 277.857 797.244 278.605C797.602 279.354 798.237 279.989 799.148 280.51C800.092 280.998 801.704 281.242 803.982 281.242V283H781.814V281.242C783.8 281.242 785.363 280.933 786.502 280.314C787.153 279.989 787.674 279.37 788.064 278.459C788.455 277.548 788.65 275.692 788.65 272.893V232.414C788.65 227.303 788.52 224.162 788.26 222.99C788.032 221.818 787.658 221.021 787.137 220.598C786.648 220.174 785.981 219.963 785.135 219.963C784.451 219.963 783.344 220.223 781.814 220.744L781.131 219.035L794.51 213.566H796.756ZM855.496 236.955C862.267 236.955 867.703 239.527 871.805 244.67C875.288 249.064 877.029 254.11 877.029 259.807C877.029 263.811 876.069 267.863 874.148 271.965C872.228 276.066 869.575 279.159 866.189 281.242C862.837 283.326 859.093 284.367 854.959 284.367C848.221 284.367 842.866 281.682 838.895 276.311C835.542 271.786 833.865 266.708 833.865 261.076C833.865 256.975 834.874 252.906 836.893 248.869C838.943 244.8 841.629 241.805 844.949 239.885C848.27 237.932 851.785 236.955 855.496 236.955ZM853.982 240.129C852.257 240.129 850.516 240.65 848.758 241.691C847.033 242.701 845.633 244.491 844.559 247.062C843.484 249.634 842.947 252.938 842.947 256.975C842.947 263.485 844.233 269.1 846.805 273.82C849.409 278.54 852.827 280.9 857.059 280.9C860.216 280.9 862.82 279.598 864.871 276.994C866.922 274.39 867.947 269.914 867.947 263.566C867.947 255.624 866.238 249.374 862.82 244.816C860.509 241.691 857.563 240.129 853.982 240.129ZM920.584 266.691C917.85 265.357 915.75 263.501 914.285 261.125C912.82 258.716 912.088 256.063 912.088 253.166C912.088 248.739 913.748 244.93 917.068 241.74C920.421 238.55 924.702 236.955 929.91 236.955C934.174 236.955 937.869 237.997 940.994 240.08H950.467C951.867 240.08 952.68 240.129 952.908 240.227C953.136 240.292 953.299 240.422 953.396 240.617C953.592 240.91 953.689 241.431 953.689 242.18C953.689 243.026 953.608 243.612 953.445 243.938C953.348 244.1 953.169 244.23 952.908 244.328C952.68 244.426 951.867 244.475 950.467 244.475H944.656C946.479 246.818 947.391 249.813 947.391 253.459C947.391 257.626 945.796 261.19 942.605 264.152C939.415 267.115 935.135 268.596 929.764 268.596C927.55 268.596 925.288 268.27 922.977 267.619C921.544 268.856 920.568 269.947 920.047 270.891C919.559 271.802 919.314 272.583 919.314 273.234C919.314 273.788 919.575 274.325 920.096 274.846C920.649 275.367 921.707 275.741 923.27 275.969C924.181 276.099 926.46 276.213 930.105 276.311C936.811 276.473 941.157 276.701 943.143 276.994C946.17 277.417 948.579 278.54 950.369 280.363C952.192 282.186 953.104 284.432 953.104 287.102C953.104 290.78 951.378 294.23 947.928 297.453C942.85 302.206 936.225 304.582 928.055 304.582C921.772 304.582 916.466 303.166 912.137 300.334C909.695 298.706 908.475 297.014 908.475 295.256C908.475 294.475 908.654 293.693 909.012 292.912C909.565 291.708 910.704 290.031 912.43 287.883C912.658 287.59 914.318 285.832 917.41 282.609C915.717 281.6 914.513 280.705 913.797 279.924C913.113 279.11 912.771 278.199 912.771 277.189C912.771 276.05 913.227 274.715 914.139 273.186C915.083 271.656 917.231 269.491 920.584 266.691ZM929.08 239.299C926.671 239.299 924.653 240.259 923.025 242.18C921.398 244.1 920.584 247.046 920.584 251.018C920.584 256.161 921.691 260.148 923.904 262.98C925.597 265.129 927.745 266.203 930.35 266.203C932.824 266.203 934.858 265.275 936.453 263.42C938.048 261.564 938.846 258.651 938.846 254.68C938.846 249.504 937.723 245.451 935.477 242.521C933.816 240.373 931.684 239.299 929.08 239.299ZM920.096 283C918.566 284.66 917.41 286.206 916.629 287.639C915.848 289.071 915.457 290.389 915.457 291.594C915.457 293.156 916.401 294.523 918.289 295.695C921.544 297.714 926.248 298.723 932.4 298.723C938.26 298.723 942.573 297.681 945.34 295.598C948.139 293.547 949.539 291.35 949.539 289.006C949.539 287.313 948.709 286.109 947.049 285.393C945.356 284.676 942.003 284.253 936.99 284.123C929.666 283.928 924.035 283.553 920.096 283ZM966.141 255.119C966.108 261.76 967.719 266.968 970.975 270.744C974.23 274.52 978.055 276.408 982.449 276.408C985.379 276.408 987.918 275.611 990.066 274.016C992.247 272.388 994.07 269.621 995.535 265.715L997.049 266.691C996.365 271.151 994.38 275.22 991.092 278.898C987.804 282.544 983.686 284.367 978.738 284.367C973.367 284.367 968.761 282.284 964.92 278.117C961.111 273.918 959.207 268.286 959.207 261.223C959.207 253.573 961.16 247.616 965.066 243.352C969.005 239.055 973.937 236.906 979.861 236.906C984.874 236.906 988.992 238.566 992.215 241.887C995.438 245.174 997.049 249.585 997.049 255.119H966.141ZM966.141 252.287H986.844C986.681 249.423 986.339 247.404 985.818 246.232C985.005 244.41 983.784 242.977 982.156 241.936C980.561 240.894 978.885 240.373 977.127 240.373C974.425 240.373 972 241.431 969.852 243.547C967.736 245.63 966.499 248.544 966.141 252.287ZM1016.04 223.576V238.273H1026.49V241.691H1016.04V270.695C1016.04 273.592 1016.45 275.546 1017.26 276.555C1018.11 277.564 1019.18 278.068 1020.49 278.068C1021.56 278.068 1022.6 277.743 1023.61 277.092C1024.62 276.408 1025.4 275.415 1025.96 274.113H1027.86C1026.72 277.303 1025.11 279.712 1023.03 281.34C1020.94 282.935 1018.79 283.732 1016.58 283.732C1015.08 283.732 1013.62 283.326 1012.19 282.512C1010.75 281.665 1009.7 280.477 1009.01 278.947C1008.33 277.385 1007.99 274.992 1007.99 271.77V241.691H1000.91V240.08C1002.7 239.364 1004.52 238.16 1006.38 236.467C1008.26 234.742 1009.94 232.707 1011.4 230.363C1012.15 229.126 1013.19 226.864 1014.53 223.576H1016.04ZM1067.26 213.566C1068.63 213.566 1069.79 214.055 1070.73 215.031C1071.71 215.975 1072.2 217.131 1072.2 218.498C1072.2 219.865 1071.71 221.037 1070.73 222.014C1069.79 222.99 1068.63 223.479 1067.26 223.479C1065.9 223.479 1064.72 222.99 1063.75 222.014C1062.77 221.037 1062.28 219.865 1062.28 218.498C1062.28 217.131 1062.76 215.975 1063.7 215.031C1064.68 214.055 1065.86 213.566 1067.26 213.566ZM1071.32 236.955V272.893C1071.32 275.692 1071.51 277.564 1071.9 278.508C1072.33 279.419 1072.93 280.103 1073.71 280.559C1074.52 281.014 1075.99 281.242 1078.1 281.242V283H1056.38V281.242C1058.56 281.242 1060.02 281.031 1060.77 280.607C1061.52 280.184 1062.1 279.484 1062.53 278.508C1062.98 277.531 1063.21 275.66 1063.21 272.893V255.656C1063.21 250.806 1063.06 247.665 1062.77 246.232C1062.54 245.191 1062.19 244.475 1061.7 244.084C1061.21 243.661 1060.54 243.449 1059.7 243.449C1058.78 243.449 1057.68 243.693 1056.38 244.182L1055.69 242.424L1069.17 236.955H1071.32ZM1096.71 223.576V238.273H1107.16V241.691H1096.71V270.695C1096.71 273.592 1097.11 275.546 1097.93 276.555C1098.77 277.564 1099.85 278.068 1101.15 278.068C1102.22 278.068 1103.27 277.743 1104.28 277.092C1105.28 276.408 1106.07 275.415 1106.62 274.113H1108.52C1107.38 277.303 1105.77 279.712 1103.69 281.34C1101.61 282.935 1099.46 283.732 1097.24 283.732C1095.75 283.732 1094.28 283.326 1092.85 282.512C1091.42 281.665 1090.36 280.477 1089.68 278.947C1088.99 277.385 1088.65 274.992 1088.65 271.77V241.691H1081.57V240.08C1083.36 239.364 1085.18 238.16 1087.04 236.467C1088.93 234.742 1090.6 232.707 1092.07 230.363C1092.82 229.126 1093.86 226.864 1095.19 223.576H1096.71Z" fill="black"/>
</g>
<defs>
<clipPath id="clip0">
<rect width="1622" height="1000" rx="90" fill="white"/>
</clipPath>
</defs>
</svg>
