<svg width="798" height="742" viewBox="0 0 798 742" fill="none" xmlns="http://www.w3.org/2000/svg">
<rect width="798" height="742" fill="white"/>
<path d="M398.748 741.617C618.97 741.617 797.496 733.558 797.496 723.617C797.496 713.676 618.97 705.617 398.748 705.617C178.526 705.617 0 713.676 0 723.617C0 733.558 178.526 741.617 398.748 741.617Z" fill="#827E7E"/>
<path d="M428 223.316H424V123.672C424 116.098 422.36 108.599 419.172 101.602C415.985 94.6045 411.313 88.2468 405.424 82.8915C399.535 77.5362 392.544 73.2882 384.849 70.3899C377.154 67.4917 368.907 66 360.579 66H128.421C120.093 66 111.846 67.4917 104.151 70.3899C96.4564 73.2882 89.4649 77.5362 83.5757 82.8915C77.6865 88.2468 73.0149 94.6045 69.8276 101.602C66.6404 108.599 65 116.098 65 123.672V670.328C65 677.902 66.6404 685.401 69.8276 692.398C73.0149 699.395 77.6865 705.753 83.5757 711.108C89.4649 716.464 96.4564 720.712 104.151 723.61C111.846 726.508 120.093 728 128.421 728H360.579C368.907 728 377.154 726.508 384.849 723.61C392.544 720.712 399.535 716.464 405.424 711.108C411.313 705.753 415.985 699.395 419.172 692.398C422.36 685.401 424 677.902 424 670.328V294.245H428V223.316Z" fill="black"/>
<path d="M363.638 86H333.333C334.727 89.0726 335.259 92.4062 334.883 95.7072C334.506 99.0082 333.233 102.175 331.174 104.929C329.116 107.684 326.336 109.94 323.08 111.501C319.823 113.061 316.19 113.877 312.5 113.878H179.5C175.81 113.877 172.177 113.061 168.92 111.501C165.664 109.94 162.884 107.684 160.826 104.929C158.767 102.175 157.494 99.0082 157.117 95.7072C156.741 92.4062 157.273 89.0726 158.666 86H130.362C124.143 86 117.984 87.1017 112.238 89.2421C106.491 91.3825 101.27 94.5198 96.8721 98.4749C92.4741 102.43 88.9854 107.125 86.6053 112.293C84.2251 117.46 83 122.999 83 128.592V668.408C83 674.001 84.225 679.54 86.6052 684.707C88.9854 689.875 92.4741 694.57 96.8721 698.525C101.27 702.48 106.491 705.617 112.238 707.758C117.984 709.898 124.143 711 130.362 711H363.638C369.857 711 376.016 709.898 381.762 707.758C387.509 705.617 392.73 702.48 397.128 698.525C401.526 694.57 405.015 689.875 407.395 684.707C409.775 679.54 411 674.001 411 668.408V128.592C411 122.999 409.775 117.46 407.395 112.293C405.015 107.125 401.526 102.43 397.128 98.4749C392.73 94.5199 387.509 91.3826 381.762 89.2421C376.016 87.1017 369.857 86 363.638 86Z" fill="white"/>
<rect x="101" y="320" width="288" height="12" fill="#C4C4C4"/>
<path d="M279.2 441H196.54V448.676H279.2V441Z" fill="#51D0DE"/>
<path d="M340.609 467.554H196.54V475.23H340.609V467.554Z" fill="#CCCCCC"/>
<path d="M340.468 494.108H196.54V501.784H340.468V494.108Z" fill="#CCCCCC"/>
<path d="M179.409 441.114H118V502.523H179.409V441.114Z" fill="#51D0DE"/>
<path d="M278.2 522H195.54V529.676H278.2V522Z" fill="#51D0DE"/>
<path d="M339.609 548.554H195.54V556.23H339.609V548.554Z" fill="#CCCCCC"/>
<path d="M339.468 575.108H195.54V582.784H339.468V575.108Z" fill="#CCCCCC"/>
<path d="M178.409 522.114H117V583.523H178.409V522.114Z" fill="#51D0DE"/>
<path d="M277.2 359H194.54V366.676H277.2V359Z" fill="#51D0DE"/>
<path d="M338.609 385.554H194.54V393.23H338.609V385.554Z" fill="#CCCCCC"/>
<path d="M338.468 412.108H194.54V419.784H338.468V412.108Z" fill="#CCCCCC"/>
<path d="M177.409 359.114H116V420.523H177.409V359.114Z" fill="#51D0DE"/>
<path d="M278.199 609H195.54V616.676H278.199V609Z" fill="#51D0DE"/>
<path d="M339.609 635.554H195.54V643.23H339.609V635.554Z" fill="#CCCCCC"/>
<path d="M339.468 662.109H195.54V669.785H339.468V662.109Z" fill="#CCCCCC"/>
<path d="M178.409 609.114H117V670.523H178.409V609.114Z" fill="#51D0DE"/>
<path d="M658.987 330.691C675.804 330.691 689.437 317.058 689.437 300.242C689.437 283.425 675.804 269.792 658.987 269.792C642.171 269.792 628.538 283.425 628.538 300.242C628.538 317.058 642.171 330.691 658.987 330.691Z" fill="black"/>
<path d="M675.019 320.513C675.019 320.513 674.561 339.309 676.395 339.767C678.228 340.226 651.181 347.561 651.181 347.561L648.43 321.888L675.019 320.513Z" fill="#F9DFDF"/>
<path d="M461.392 480.963C461.392 480.963 441.221 480.963 440.762 478.671C440.304 476.379 436.178 497.467 436.178 497.467L444.43 500.217C444.43 500.217 460.016 493.341 461.392 493.341C462.767 493.341 461.392 480.963 461.392 480.963Z" fill="#F9DFDF"/>
<path d="M439.387 489.215C439.387 489.215 443.055 476.837 447.639 476.379C447.639 476.379 432.052 466.293 431.594 463.084C431.135 459.875 425.634 451.624 423.342 454.374C421.05 457.125 421.05 500.676 425.176 505.26C429.302 509.844 447.639 498.816 447.639 498.816C447.639 498.816 436.178 493.799 439.387 489.215Z" fill="black"/>
<path d="M688.314 664.793L691.981 684.505L675.019 687.256V664.793H688.314Z" fill="#F9DFDF"/>
<path d="M688.314 682.213C688.314 682.213 691.064 673.503 692.898 674.878C694.732 676.254 697.482 684.964 697.024 687.256C696.565 689.548 693.356 707.427 694.732 710.636C696.107 713.845 687.855 730.348 677.311 728.973C666.768 727.598 667.684 718.429 667.684 718.429L671.352 704.218L672.727 681.755C672.727 681.755 684.646 679.921 688.314 682.213Z" fill="black"/>
<path d="M669.639 280.794C676.598 280.794 682.239 275.152 682.239 268.194C682.239 261.235 676.598 255.594 669.639 255.594C662.68 255.594 657.039 261.235 657.039 268.194C657.039 275.152 662.68 280.794 669.639 280.794Z" fill="black"/>
<path d="M686.439 261.369C686.439 258.255 685.285 255.25 683.201 252.936C681.116 250.622 678.249 249.162 675.151 248.837C675.588 248.792 676.026 248.769 676.464 248.769C679.806 248.769 683.01 250.097 685.373 252.46C687.736 254.822 689.064 258.027 689.064 261.369C689.064 264.711 687.736 267.915 685.373 270.278C683.01 272.641 679.806 273.969 676.464 273.969C676.026 273.969 675.588 273.946 675.151 273.901C678.249 273.576 681.116 272.116 683.201 269.802C685.285 267.487 686.439 264.483 686.439 261.369Z" fill="black"/>
<path d="M658.974 333.349C669.608 333.349 678.228 324.729 678.228 314.095C678.228 303.462 669.608 294.841 658.974 294.841C648.341 294.841 639.72 303.462 639.72 314.095C639.72 324.729 648.341 333.349 658.974 333.349Z" fill="#F9DFDF"/>
<path d="M697.024 447.956C697.024 447.956 696.107 470.878 692.44 482.797C688.772 494.716 675.55 579.601 678.301 586.019C681.051 592.437 695.19 663.418 691.981 667.543C688.772 671.669 673.644 670.294 673.644 670.294L653.087 584.185C653.087 584.185 657.141 489.215 623.217 486.923C589.293 484.631 533.823 483.255 533.823 483.255C533.823 483.255 498.066 493.799 482.021 493.341C465.976 492.882 456.807 497.466 456.807 497.466L454.057 478.671L525.113 463.084C525.113 463.084 590.21 440.621 625.967 446.581C661.725 452.541 697.024 447.956 697.024 447.956Z" fill="black"/>
<path d="M671.352 333.808C671.352 333.808 676.853 330.599 678.228 333.808C679.604 337.017 689.231 339.767 692.898 337.017C696.565 334.266 705.734 337.933 705.734 337.933L715.819 367.731C715.819 367.731 710.777 393.403 706.192 407.615C701.608 421.826 699.774 451.165 701.608 453.916C703.442 456.666 664.934 467.669 646.138 460.792C627.343 453.916 623.217 446.123 623.217 446.123C623.217 446.123 643.846 416.783 636.97 403.03C630.093 389.277 635.594 373.691 635.594 373.691L632.844 358.104L648.43 349.394C648.43 349.394 649.347 341.142 653.015 341.142C656.682 341.142 671.352 333.808 671.352 333.808Z" fill="#CCCCCC"/>
<path d="M639.72 358.563H632.844C630.936 360.348 629.515 362.589 628.713 365.075C627.911 367.561 627.755 370.211 628.26 372.774C630.093 381.484 638.363 410.361 638.363 410.361L645.221 392.486L639.72 358.563Z" fill="#CCCCCC"/>
<path d="M619.974 432.184C619.974 432.184 606.255 447.039 616.34 454.833C626.426 462.626 628.911 436.954 628.911 436.954L619.974 432.184Z" fill="#F9DFDF"/>
<path d="M639.72 401.197L636.511 414.033L631.01 424.118C631.01 424.118 612.215 436.496 612.215 441.08C612.215 441.08 620.466 430.536 631.01 441.08L640.408 418.388L639.72 401.197Z" fill="#CCCCCC"/>
<path d="M655.445 306.385C667.043 306.385 676.445 300.744 676.445 293.786C676.445 286.827 667.043 281.186 655.445 281.186C643.848 281.186 634.446 286.827 634.446 293.786C634.446 300.744 643.848 306.385 655.445 306.385Z" fill="black"/>
<path d="M697.024 294.841C697.024 294.841 682.354 286.59 676.395 292.549C670.435 298.509 694.273 307.677 694.273 307.677L697.024 294.841Z" fill="#F9DFDF"/>
<path d="M702.525 340.226L705.734 337.933C705.734 337.933 709.401 332.432 712.61 334.266C715.819 336.1 734.615 327.39 734.615 327.39C734.615 327.39 727.739 330.599 727.739 325.097C727.739 319.596 726.822 320.513 722.237 320.513C717.653 320.513 717.653 322.805 715.819 319.596C713.986 316.387 714.903 314.554 711.694 316.387C708.485 318.221 704.817 316.846 703.9 315.47C702.983 314.095 686.48 311.803 686.48 311.803C686.48 311.803 692.898 293.007 694.273 291.632C695.649 290.257 730.948 305.844 730.948 305.844C730.948 305.844 775.415 318.221 763.954 332.432C752.494 346.644 711.235 368.19 711.235 368.19L702.525 340.226Z" fill="#CCCCCC"/>
<g style="mix-blend-mode:darken" filter="url(#filter0_d)">
<path d="M152.807 243.941C152.807 246.969 152.237 249.644 151.094 251.962C149.952 254.282 148.416 256.193 146.484 257.694C144.2 259.493 141.685 260.777 138.939 261.54C136.22 262.304 132.753 262.686 128.537 262.686H107V201.743H124.989C129.422 201.743 132.739 201.906 134.942 202.234C137.144 202.561 139.252 203.244 141.263 204.28C143.494 205.453 145.111 206.967 146.117 208.823C147.124 210.652 147.628 212.848 147.628 215.412C147.628 218.306 146.893 220.775 145.424 222.82C143.956 224.84 141.998 226.464 139.551 227.691V228.019C143.657 228.865 146.893 230.679 149.259 233.463C151.624 236.219 152.807 239.711 152.807 243.941ZM139.224 216.477C139.224 215.004 138.979 213.762 138.491 212.752C138 211.743 137.212 210.924 136.124 210.297C134.847 209.56 133.296 209.11 131.474 208.946C129.653 208.755 127.396 208.659 124.703 208.659H115.077V226.26H125.519C128.049 226.26 130.06 226.137 131.556 225.89C133.052 225.618 134.438 225.072 135.716 224.253C136.995 223.435 137.892 222.384 138.409 221.102C138.953 219.792 139.224 218.251 139.224 216.477ZM144.405 244.269C144.405 241.812 144.038 239.861 143.303 238.416C142.568 236.97 141.237 235.741 139.305 234.731C138 234.049 136.41 233.613 134.533 233.421C132.685 233.204 130.427 233.094 127.763 233.094H115.077V255.77H125.764C129.299 255.77 132.196 255.592 134.452 255.237C136.709 254.855 138.559 254.173 140 253.191C141.522 252.127 142.638 250.912 143.344 249.548C144.051 248.184 144.405 246.423 144.405 244.269ZM171.407 262.686H163.739V199H171.407V262.686ZM225.412 239.847C225.412 247.297 223.509 253.178 219.702 257.488C215.896 261.8 210.796 263.956 204.407 263.956C197.961 263.956 192.836 261.8 189.028 257.488C185.248 253.178 183.358 247.297 183.358 239.847C183.358 232.399 185.248 226.518 189.028 222.207C192.836 217.868 197.961 215.699 204.407 215.699C210.796 215.699 215.896 217.868 219.702 222.207C223.509 226.518 225.412 232.399 225.412 239.847ZM217.5 239.847C217.5 233.927 216.343 229.534 214.032 226.668C211.721 223.776 208.512 222.331 204.407 222.331C200.246 222.331 197.01 223.776 194.698 226.668C192.414 229.534 191.272 233.927 191.272 239.847C191.272 245.579 192.427 249.93 194.739 252.904C197.05 255.851 200.273 257.324 204.407 257.324C208.484 257.324 211.68 255.865 213.991 252.945C216.33 249.998 217.5 245.632 217.5 239.847ZM274.279 257.488C274.279 265.238 272.525 270.927 269.017 274.555C265.509 278.185 260.111 280 252.823 280C250.403 280 248.038 279.822 245.726 279.467C243.442 279.14 241.185 278.663 238.954 278.035V270.177H239.363C240.613 270.668 242.599 271.268 245.318 271.978C248.038 272.714 250.757 273.083 253.476 273.083C256.086 273.083 258.249 272.769 259.961 272.142C261.674 271.514 263.007 270.641 263.958 269.522C264.911 268.457 265.59 267.175 265.998 265.674C266.407 264.173 266.61 262.495 266.61 260.641V256.465C264.299 258.321 262.082 259.712 259.961 260.641C257.868 261.54 255.189 261.991 251.926 261.991C246.487 261.991 242.164 260.026 238.954 256.097C235.774 252.14 234.182 246.574 234.182 239.398C234.182 235.469 234.727 232.084 235.814 229.247C236.929 226.382 238.438 223.913 240.342 221.838C242.109 219.901 244.258 218.401 246.786 217.336C249.316 216.245 251.831 215.699 254.333 215.699C256.97 215.699 259.173 215.972 260.94 216.518C262.735 217.037 264.625 217.841 266.61 218.933L267.1 216.968H274.279V257.488ZM266.61 250.121V225.195C264.57 224.268 262.667 223.613 260.9 223.23C259.159 222.82 257.419 222.616 255.679 222.616C251.464 222.616 248.146 224.036 245.726 226.873C243.306 229.711 242.095 233.831 242.095 239.234C242.095 244.363 242.993 248.252 244.788 250.899C246.582 253.546 249.56 254.869 253.721 254.869C255.95 254.869 258.18 254.446 260.41 253.599C262.667 252.727 264.733 251.567 266.61 250.121ZM326.326 257.488C326.326 265.238 324.572 270.927 321.063 274.555C317.556 278.185 312.159 280 304.87 280C302.45 280 300.085 279.822 297.774 279.467C295.489 279.14 293.233 278.663 291.002 278.035V270.177H291.41C292.661 270.668 294.646 271.268 297.365 271.978C300.085 272.714 302.804 273.083 305.523 273.083C308.133 273.083 310.295 272.769 312.009 272.142C313.723 271.514 315.054 270.641 316.007 269.522C316.958 268.457 317.638 267.175 318.046 265.674C318.453 264.173 318.658 262.495 318.658 260.641V256.465C316.346 258.321 314.13 259.712 312.009 260.641C309.915 261.54 307.237 261.991 303.974 261.991C298.535 261.991 294.212 260.026 291.002 256.097C287.821 252.14 286.23 246.574 286.23 239.398C286.23 235.469 286.774 232.084 287.861 229.247C288.976 226.382 290.485 223.913 292.389 221.838C294.157 219.901 296.305 218.401 298.833 217.336C301.363 216.245 303.878 215.699 306.379 215.699C309.017 215.699 311.22 215.972 312.988 216.518C314.782 217.037 316.672 217.841 318.658 218.933L319.147 216.968H326.326V257.488ZM318.658 250.121V225.195C316.618 224.268 314.715 223.613 312.947 223.23C311.206 222.82 309.466 222.616 307.726 222.616C303.512 222.616 300.194 224.036 297.774 226.873C295.354 229.711 294.144 233.831 294.144 239.234C294.144 244.363 295.04 248.252 296.835 250.899C298.63 253.546 301.607 254.869 305.768 254.869C307.998 254.869 310.227 254.446 312.458 253.599C314.715 252.727 316.781 251.567 318.658 250.121ZM349.658 209.314H341.01V201.333H349.658V209.314ZM349.168 262.686H341.5V216.968H349.168V262.686ZM388 262.278C386.559 262.659 384.981 262.973 383.268 263.218C381.582 263.464 380.073 263.588 378.74 263.588C374.091 263.588 370.555 262.332 368.135 259.821C365.715 257.311 364.505 253.286 364.505 247.747V223.435H359.325V216.968H364.505V203.829H372.174V216.968H388V223.435H372.174V244.269C372.174 246.67 372.227 248.552 372.337 249.916C372.445 251.254 372.826 252.508 373.479 253.682C374.077 254.773 374.893 255.578 375.926 256.097C376.986 256.588 378.59 256.833 380.739 256.833C381.991 256.833 383.296 256.656 384.655 256.301C386.015 255.919 386.994 255.606 387.591 255.36H388V262.278Z" fill="black"/>
</g>
<path d="M105 172H393V184H105V172Z" fill="#C4C4C4"/>
<path d="M105 144H393V156H105V144Z" fill="#C4C4C4"/>
<rect x="101" y="288" width="288" height="12" fill="#C4C4C4"/>
<defs>
<filter id="filter0_d" x="103" y="199" width="289" height="89" filterUnits="userSpaceOnUse" color-interpolation-filters="sRGB">
<feFlood flood-opacity="0" result="BackgroundImageFix"/>
<feColorMatrix in="SourceAlpha" type="matrix" values="0 0 0 0 0 0 0 0 0 0 0 0 0 0 0 0 0 0 127 0"/>
<feOffset dy="4"/>
<feGaussianBlur stdDeviation="2"/>
<feColorMatrix type="matrix" values="0 0 0 0 0 0 0 0 0 0 0 0 0 0 0 0 0 0 0.25 0"/>
<feBlend mode="normal" in2="BackgroundImageFix" result="effect1_dropShadow"/>
<feBlend mode="normal" in="SourceGraphic" in2="effect1_dropShadow" result="shape"/>
</filter>
</defs>
</svg>
